  0
SECTION
  2
HEADER
  9
$ACADVER
  1
AC1014
  9
$ACADMAINTVER
 70
     0
  9
$DWGCODEPAGE
  3
ANSI_1252
  9
$INSBASE
 10
0.0
 20
0.0
 30
0.0
  9
$EXTMIN
 10
4.197988
 20
12.137911
 30
0.0
  9
$EXTMAX
 10
592.062631
 20
324.391492
 30
0.0
  9
$LIMMIN
 10
0.0
 20
0.0
  9
$LIMMAX
 10
12.0
 20
9.0
  9
$ORTHOMODE
 70
     1
  9
$REGENMODE
 70
     1
  9
$FILLMODE
 70
     1
  9
$QTEXTMODE
 70
     0
  9
$MIRRTEXT
 70
     1
  9
$DRAGMODE
 70
     2
  9
$LTSCALE
 40
1.0
  9
$OSMODE
 70
    55
  9
$ATTMODE
 70
     1
  9
$TEXTSIZE
 40
0.2
  9
$TRACEWID
 40
0.05
  9
$TEXTSTYLE
  7
STANDARD
  9
$CLAYER
  8
0
  9
$CELTYPE
  6
BYBLOCK
  9
$CECOLOR
 62
   256
  9
$CELTSCALE
 40
1.0
  9
$DELOBJ
 70
     1
  9
$DISPSILH
 70
     0
  9
$DIMSCALE
 40
1.0
  9
$DIMASZ
 40
0.18
  9
$DIMEXO
 40
0.0625
  9
$DIMDLI
 40
0.38
  9
$DIMRND
 40
0.0
  9
$DIMDLE
 40
0.0
  9
$DIMEXE
 40
0.18
  9
$DIMTP
 40
0.0
  9
$DIMTM
 40
0.0
  9
$DIMTXT
 40
0.18
  9
$DIMCEN
 40
0.09
  9
$DIMTSZ
 40
0.0
  9
$DIMTOL
 70
     0
  9
$DIMLIM
 70
     0
  9
$DIMTIH
 70
     1
  9
$DIMTOH
 70
     1
  9
$DIMSE1
 70
     0
  9
$DIMSE2
 70
     0
  9
$DIMTAD
 70
     0
  9
$DIMZIN
 70
     0
  9
$DIMBLK
  1

  9
$DIMASO
 70
     1
  9
$DIMSHO
 70
     1
  9
$DIMPOST
  1

  9
$DIMAPOST
  1

  9
$DIMALT
 70
     0
  9
$DIMALTD
 70
     2
  9
$DIMALTF
 40
25.4
  9
$DIMLFAC
 40
1.0
  9
$DIMTOFL
 70
     0
  9
$DIMTVP
 40
0.0
  9
$DIMTIX
 70
     0
  9
$DIMSOXD
 70
     0
  9
$DIMSAH
 70
     0
  9
$DIMBLK1
  1

  9
$DIMBLK2
  1

  9
$DIMSTYLE
  2
STANDARD
  9
$DIMCLRD
 70
     0
  9
$DIMCLRE
 70
     0
  9
$DIMCLRT
 70
     0
  9
$DIMTFAC
 40
1.0
  9
$DIMGAP
 40
0.09
  9
$DIMJUST
 70
     0
  9
$DIMSD1
 70
     0
  9
$DIMSD2
 70
     0
  9
$DIMTOLJ
 70
     1
  9
$DIMTZIN
 70
     0
  9
$DIMALTZ
 70
     0
  9
$DIMALTTZ
 70
     0
  9
$DIMFIT
 70
     5
  9
$DIMUPT
 70
     0
  9
$DIMUNIT
 70
     2
  9
$DIMDEC
 70
     4
  9
$DIMTDEC
 70
     4
  9
$DIMALTU
 70
     2
  9
$DIMALTTD
 70
     2
  9
$DIMTXSTY
  7
STANDARD
  9
$DIMAUNIT
 70
     0
  9
$LUNITS
 70
     2
  9
$LUPREC
 70
     4
  9
$SKETCHINC
 40
0.1
  9
$FILLETRAD
 40
0.5
  9
$AUNITS
 70
     0
  9
$AUPREC
 70
     0
  9
$MENU
  1
.
  9
$ELEVATION
 40
0.0
  9
$PELEVATION
 40
0.0
  9
$THICKNESS
 40
0.0
  9
$LIMCHECK
 70
     0
  9
$BLIPMODE
 70
     0
  9
$CHAMFERA
 40
0.0
  9
$CHAMFERB
 40
0.0
  9
$CHAMFERC
 40
0.0
  9
$CHAMFERD
 40
0.0
  9
$SKPOLY
 70
     0
  9
$TDCREATE
 40
2456995.669837962
  9
$TDUPDATE
 40
2457125.424094849
  9
$TDINDWG
 40
0.7643356366
  9
$TDUSRTIMER
 40
2457125.381442106
  9
$USRTIMER
 70
     1
  9
$ANGBASE
 50
0.0
  9
$ANGDIR
 70
     0
  9
$PDMODE
 70
     0
  9
$PDSIZE
 40
0.0
  9
$PLINEWID
 40
0.0
  9
$COORDS
 70
     1
  9
$SPLFRAME
 70
     0
  9
$SPLINETYPE
 70
     6
  9
$SPLINESEGS
 70
     8
  9
$ATTDIA
 70
     0
  9
$ATTREQ
 70
     1
  9
$HANDLING
 70
     1
  9
$HANDSEED
  5
6D
  9
$SURFTAB1
 70
     6
  9
$SURFTAB2
 70
     6
  9
$SURFTYPE
 70
     6
  9
$SURFU
 70
     6
  9
$SURFV
 70
     6
  9
$UCSNAME
  2

  9
$UCSORG
 10
0.0
 20
0.0
 30
0.0
  9
$UCSXDIR
 10
1.0
 20
0.0
 30
0.0
  9
$UCSYDIR
 10
0.0
 20
1.0
 30
0.0
  9
$PUCSNAME
  2

  9
$PUCSORG
 10
0.0
 20
0.0
 30
0.0
  9
$PUCSXDIR
 10
1.0
 20
0.0
 30
0.0
  9
$PUCSYDIR
 10
0.0
 20
1.0
 30
0.0
  9
$USERI1
 70
     0
  9
$USERI2
 70
     0
  9
$USERI3
 70
     0
  9
$USERI4
 70
     0
  9
$USERI5
 70
     0
  9
$USERR1
 40
0.0
  9
$USERR2
 40
0.0
  9
$USERR3
 40
0.0
  9
$USERR4
 40
0.0
  9
$USERR5
 40
0.0
  9
$WORLDVIEW
 70
     1
  9
$SHADEDGE
 70
     3
  9
$SHADEDIF
 70
    70
  9
$TILEMODE
 70
     1
  9
$MAXACTVP
 70
    64
  9
$PINSBASE
 10
0.0
 20
0.0
 30
0.0
  9
$PLIMCHECK
 70
     0
  9
$PEXTMIN
 10
1.000000E+20
 20
1.000000E+20
 30
1.000000E+20
  9
$PEXTMAX
 10
-1.000000E+20
 20
-1.000000E+20
 30
-1.000000E+20
  9
$PLIMMIN
 10
0.0
 20
0.0
  9
$PLIMMAX
 10
12.0
 20
9.0
  9
$UNITMODE
 70
     0
  9
$VISRETAIN
 70
     1
  9
$PLINEGEN
 70
     0
  9
$PSLTSCALE
 70
     1
  9
$TREEDEPTH
 70
  3020
  9
$PICKSTYLE
 70
     1
  9
$CMLSTYLE
  2
STANDARD
  9
$CMLJUST
 70
     0
  9
$CMLSCALE
 40
1.0
  9
$PROXYGRAPHICS
 70
     1
  9
$MEASUREMENT
 70
     0
  0
ENDSEC
  0
SECTION
  2
CLASSES
  0
CLASS
  1
ACDBDICTIONARYWDFLT
  2
AcDbDictionaryWithDefault
  3
ObjectDBX Classes
 90
        0
280
     1
281
     0
  0
CLASS
  1
SCALE
  2
AcDbScale
  3
ObjectDBX Classes
 90
     1153
280
     1
281
     0
  0
CLASS
  1
VISUALSTYLE
  2
AcDbVisualStyle
  3
ObjectDBX Classes
 90
     4095
280
     1
281
     0
  0
CLASS
  1
MATERIAL
  2
AcDbMaterial
  3
ObjectDBX Classes
 90
     1153
280
     1
281
     0
  0
CLASS
  1
TABLESTYLE
  2
AcDbTableStyle
  3
ObjectDBX Classes
 90
     4095
280
     1
281
     0
  0
CLASS
  1
MLEADERSTYLE
  2
AcDbMLeaderStyle
  3
ACDB_MLEADERSTYLE_CLASS
 90
     4095
280
     1
281
     0
  0
CLASS
  1
SUN
  2
AcDbSun
  3
SCENEOE
 90
     1153
280
     1
281
     0
  0
CLASS
  1
RASTERVARIABLES
  2
AcDbRasterVariables
  3
ISM
 90
        0
280
     1
281
     0
  0
CLASS
  1
DICTIONARYVAR
  2
AcDbDictionaryVar
  3
"AutoCAD"
 90
        0
280
     0
281
     0
  0
CLASS
  1
XRECORD
  2
AcDbXrecord
  3
"<Built In>"
 90
        0
280
     0
281
     0
  0
CLASS
  1
LWPOLYLINE
  2
AcDbPolyline
  3
"AutoCAD"
 90
        0
280
     0
281
     1
  0
CLASS
  1
HATCH
  2
AcDbHatch
  3
"ACAD_SEDONA"
 90
        0
280
     0
281
     1
  0
ENDSEC
  0
SECTION
  2
TABLES
  0
TABLE
  2
VPORT
  5
16
100
AcDbSymbolTable
 70
     2
  0
VPORT
  5
6C
100
AcDbSymbolTableRecord
100
AcDbViewportTableRecord
  2
*ACTIVE
 70
     0
 10
0.0
 20
0.0
 11
1.0
 21
1.0
 12
627.239278
 22
-14.391242
 13
0.0
 23
0.0
 14
0.5
 24
0.5
 15
0.5
 25
0.5
 16
0.0
 26
0.0
 36
1.0
 17
0.0
 27
0.0
 37
0.0
 40
693.986864
 41
2.357285
 42
50.0
 43
0.0
 44
0.0
 50
0.0
 51
0.0
 71
    16
 72
   100
 73
     1
 74
     3
 75
     0
 76
     0
 77
     0
 78
     0
  0
ENDTAB
  0
TABLE
  2
LTYPE
  5
11
100
AcDbSymbolTable
 70
     1
  0
LTYPE
  5
12
100
AcDbSymbolTableRecord
100
AcDbLinetypeTableRecord
  2
BYBLOCK
 70
     0
  3

 72
    65
 73
     0
 40
0.0
  0
LTYPE
  5
13
100
AcDbSymbolTableRecord
100
AcDbLinetypeTableRecord
  2
BYLAYER
 70
     0
  3

 72
    65
 73
     0
 40
0.0
  0
LTYPE
  5
5
100
AcDbSymbolTableRecord
100
AcDbLinetypeTableRecord
  2
CONTINUOUS
 70
     0
  3
Solid line
 72
    65
 73
     0
 40
0.0
  0
ENDTAB
  0
TABLE
  2
LAYER
  5
A
102
{ACAD_XDICTIONARY
360
B
102
}
100
AcDbSymbolTable
 70
     4
  0
LAYER
  5
4
100
AcDbSymbolTableRecord
100
AcDbLayerTableRecord
  2
0
 70
     0
 62
     7
  6
CONTINUOUS
  0
LAYER
  5
24
100
AcDbSymbolTableRecord
100
AcDbLayerTableRecord
  2
L1
 70
     0
 62
   102
  6
CONTINUOUS
  0
LAYER
  5
33
100
AcDbSymbolTableRecord
100
AcDbLayerTableRecord
  2
E1
 70
     0
 62
    30
  6
CONTINUOUS
  0
LAYER
  5
21
100
AcDbSymbolTableRecord
100
AcDbLayerTableRecord
  2
C1
 70
     0
 62
    20
  6
CONTINUOUS
  0
ENDTAB
  0
TABLE
  2
STYLE
  5
F
100
AcDbSymbolTable
 70
     1
  0
STYLE
  5
10
100
AcDbSymbolTableRecord
100
AcDbTextStyleTableRecord
  2
STANDARD
 70
     0
 40
0.0
 41
1.0
 50
0.0
 71
     0
 42
0.2
  3
txt
  4

  0
ENDTAB
  0
TABLE
  2
VIEW
  5
14
100
AcDbSymbolTable
 70
     0
  0
ENDTAB
  0
TABLE
  2
UCS
  5
15
100
AcDbSymbolTable
 70
     0
  0
ENDTAB
  0
TABLE
  2
APPID
  5
18
100
AcDbSymbolTable
 70
     1
  0
APPID
  5
E
100
AcDbSymbolTableRecord
100
AcDbRegAppTableRecord
  2
ACAD
 70
     0
  0
ENDTAB
  0
TABLE
  2
DIMSTYLE
  5
19
100
AcDbSymbolTable
 70
     1
  0
DIMSTYLE
105
1F
100
AcDbSymbolTableRecord
100
AcDbDimStyleTableRecord
  2
STANDARD
 70
     0
  3

  4

  5

  6

  7

 40
1.0
 41
0.18
 42
0.0625
 43
0.38
 44
0.18
 45
0.0
 46
0.0
 47
0.0
 48
0.0
140
0.18
141
0.09
142
0.0
143
25.4
144
1.0
145
0.0
146
1.0
147
0.09
 71
     0
 72
     0
 73
     1
 74
     1
 75
     0
 76
     0
 77
     0
 78
     0
170
     0
171
     2
172
     0
173
     0
174
     0
175
     0
176
     0
177
     0
178
     0
270
     2
271
     4
272
     4
273
     2
274
     2
340
10
275
     0
280
     0
281
     0
282
     0
283
     1
284
     0
285
     0
286
     0
287
     3
288
     0
  0
ENDTAB
  0
TABLE
  2
BLOCK_RECORD
  5
1
100
AcDbSymbolTable
 70
     0
  0
BLOCK_RECORD
  5
2
100
AcDbSymbolTableRecord
100
AcDbBlockTableRecord
  2
*MODEL_SPACE
  0
BLOCK_RECORD
  5
7
100
AcDbSymbolTableRecord
100
AcDbBlockTableRecord
  2
*PAPER_SPACE
  0
ENDTAB
  0
ENDSEC
  0
SECTION
  2
BLOCKS
  0
BLOCK
  5
3
100
AcDbEntity
  8
0
100
AcDbBlockBegin
  2
*MODEL_SPACE
 70
     0
 10
0.0
 20
0.0
 30
0.0
  3
*MODEL_SPACE
  1

  0
ENDBLK
  5
6
100
AcDbEntity
  8
0
100
AcDbBlockEnd
  0
BLOCK
  5
8
100
AcDbEntity
 67
     1
  8
0
100
AcDbBlockBegin
  2
*PAPER_SPACE
 70
     0
 10
0.0
 20
0.0
 30
0.0
  3
*PAPER_SPACE
  1

  0
ENDBLK
  5
9
100
AcDbEntity
 67
     1
  8
0
100
AcDbBlockEnd
  0
ENDSEC
  0
SECTION
  2
ENTITIES
  0
LWPOLYLINE
  5
20
100
AcDbEntity
  8
C1
  6
BYBLOCK
100
AcDbPolyline
 90
      275
 70
     1
 43
0.0
 10
577.841335
 20
167.313669
 10
576.528397
 20
170.888787
 10
572.786579
 20
181.605323
 10
568.503491
 20
194.278403
 10
564.418215
 20
208.03937
 10
562.008063
 20
216.888334
 10
559.816855
 20
225.765423
 10
555.792298
 20
243.17221
 10
552.602319
 20
259.114015
 10
550.249715
 20
273.207879
 10
548.371631
 20
287.398691
 10
105.544033
 20
287.398691
 10
107.422117
 20
273.207879
 10
109.774721
 20
259.114015
 10
112.9647
 20
243.17221
 10
116.989257
 20
225.765423
 10
118.340917
 20
220.289537
 10
125.213504
 20
220.139537
 10
125.213504
 20
217.149537
 10
119.11599
 20
217.149537
 10
119.180465
 20
216.888334
 10
121.590617
 20
208.03937
 10
125.675893
 20
194.278403
 10
129.958981
 20
181.605323
 10
133.700799
 20
170.888787
 10
135.013737
 20
167.313669
 10
137.45767
 20
160.145245
 10
138.635636
 20
156.438089
 10
139.819821
 20
152.716417
 10
140.917966
 20
148.979039
 10
141.735008
 20
145.809034
 10
141.915704
 20
145.174699
 10
142.171516
 20
144.225258
 10
142.407558
 20
143.263872
 10
142.554587
 20
142.624242
 10
143.376344
 20
139.423178
 10
144.052576
 20
136.076631
 10
144.205273
 20
135.407125
 10
144.419129
 20
134.404471
 10
144.611555
 20
133.389771
 10
144.729544
 20
132.714288
 10
145.410913
 20
129.336962
 10
145.97565
 20
125.766583
 10
146.070294
 20
125.052183
 10
146.212905
 20
123.975706
 10
147.024032
 20
118.584766
 10
147.413854
 20
114.747332
 10
147.510915
 20
113.978832
 10
147.609901
 20
112.824128
 10
147.747018
 20
111.669602
 10
147.807282
 20
110.898497
 10
148.207974
 20
107.038399
 10
148.449348
 20
102.874589
 10
148.517147
 20
102.041446
 10
148.571597
 20
100.788686
 10
148.664888
 20
99.537446
 10
148.695518
 20
98.701107
 10
148.950506
 20
94.519402
 10
149.037724
 20
89.930348
 10
149.075053
 20
89.012334
 10
149.083303
 20
87.633359
 10
149.131031
 20
86.255761
 10
149.130989
 20
85.33591
 10
149.235033
 20
80.737894
 10
149.190134
 20
75.544411
 10
149.168678
 20
72.660355
 10
149.148828
 20
71.650059
 10
149.149732
 20
70.351838
 10
149.018434
 20
65.161188
 10
148.759
 20
59.837963
 10
148.726367
 20
58.773264
 10
148.629921
 20
57.177654
 10
148.571691
 20
55.582174
 10
148.501257
 20
54.519332
 10
148.244762
 20
49.20647
 10
147.831666
 20
43.895616
 10
147.730328
 20
42.833125
 10
147.578653
 20
41.242859
 10
147.41949
 20
38.592996
 10
146.914565
 20
33.300767
 10
146.283128
 20
28.053645
 10
145.728153
 20
22.810228
 10
144.816064
 20
16.200106
 10
151.101521
 20
16.050106
 10
151.101521
 20
13.060106
 10
157.407136
 20
13.060106
 10
157.840405
 20
16.200106
 10
164.125862
 20
16.050106
 10
164.125862
 20
13.060106
 10
170.431477
 20
13.060106
 10
170.864746
 20
16.200106
 10
177.150203
 20
16.050106
 10
177.150203
 20
13.060106
 10
183.455819
 20
13.060106
 10
183.889087
 20
16.200106
 10
190.174544
 20
16.050106
 10
190.174544
 20
13.060106
 10
196.48016
 20
13.060106
 10
196.913428
 20
16.200106
 10
203.198885
 20
16.050106
 10
203.198885
 20
13.060106
 10
209.504501
 20
13.060106
 10
209.93777
 20
16.200106
 10
216.223227
 20
16.050106
 10
216.223227
 20
13.060106
 10
222.528842
 20
13.060106
 10
222.962111
 20
16.200106
 10
229.247568
 20
16.050106
 10
229.247568
 20
13.060106
 10
235.553183
 20
13.060106
 10
235.986452
 20
16.200106
 10
242.271909
 20
16.050106
 10
242.271909
 20
13.060106
 10
248.577524
 20
13.060106
 10
249.010793
 20
16.200106
 10
255.29625
 20
16.050106
 10
255.29625
 20
13.060106
 10
261.601865
 20
13.060106
 10
262.035134
 20
16.200106
 10
268.320591
 20
16.050106
 10
268.320591
 20
13.060106
 10
274.626207
 20
13.060106
 10
275.059475
 20
16.200106
 10
281.344932
 20
16.050106
 10
281.344932
 20
13.060106
 10
287.650548
 20
13.060106
 10
288.083816
 20
16.200106
 10
294.369273
 20
16.050106
 10
294.369273
 20
13.060106
 10
300.674889
 20
13.060106
 10
301.108158
 20
16.200106
 10
307.393615
 20
16.050106
 10
307.393615
 20
13.060106
 10
313.69923
 20
13.060106
 10
314.132499
 20
16.200106
 10
320.417956
 20
16.050106
 10
320.417956
 20
13.060106
 10
326.723571
 20
13.060106
 10
327.15684
 20
16.200106
 10
333.442297
 20
16.050106
 10
333.442297
 20
13.060106
 10
339.747912
 20
13.060106
 10
340.181181
 20
16.200106
 10
346.466638
 20
16.050106
 10
346.466638
 20
13.060106
 10
352.772253
 20
13.060106
 10
353.205522
 20
16.200106
 10
359.490979
 20
16.050106
 10
359.490979
 20
13.060106
 10
365.796595
 20
13.060106
 10
366.229863
 20
16.200106
 10
372.51532
 20
16.050106
 10
372.51532
 20
13.060106
 10
378.820936
 20
13.060106
 10
379.254204
 20
16.200106
 10
385.539661
 20
16.050106
 10
385.539661
 20
13.060106
 10
391.845277
 20
13.060106
 10
392.278546
 20
16.200106
 10
398.564003
 20
16.050106
 10
398.564003
 20
13.060106
 10
404.869618
 20
13.060106
 10
405.302887
 20
16.200106
 10
411.588344
 20
16.050106
 10
411.588344
 20
13.060106
 10
417.893959
 20
13.060106
 10
418.327228
 20
16.200106
 10
424.612685
 20
16.050106
 10
424.612685
 20
13.060106
 10
430.9183
 20
13.060106
 10
431.351569
 20
16.200106
 10
437.637026
 20
16.050106
 10
437.637026
 20
13.060106
 10
443.942641
 20
13.060106
 10
444.37591
 20
16.200106
 10
450.661367
 20
16.050106
 10
450.661367
 20
13.060106
 10
456.966983
 20
13.060106
 10
457.400251
 20
16.200106
 10
463.685708
 20
16.050106
 10
463.685708
 20
13.060106
 10
469.991324
 20
13.060106
 10
470.424592
 20
16.200106
 10
476.710049
 20
16.050106
 10
476.710049
 20
13.060106
 10
483.015665
 20
13.060106
 10
483.448933
 20
16.200106
 10
489.73439
 20
16.050106
 10
489.73439
 20
13.060106
 10
496.040006
 20
13.060106
 10
496.473275
 20
16.200106
 10
502.758732
 20
16.050106
 10
502.758732
 20
13.060106
 10
509.064347
 20
13.060106
 10
509.497616
 20
16.200106
 10
515.783073
 20
16.050106
 10
515.783073
 20
13.060106
 10
522.088688
 20
13.060106
 10
522.521957
 20
16.200106
 10
528.807414
 20
16.050106
 10
528.807414
 20
13.060106
 10
535.113029
 20
13.060106
 10
535.546298
 20
16.200106
 10
541.831755
 20
16.050106
 10
541.831755
 20
13.060106
 10
548.13737
 20
13.060106
 10
548.570639
 20
16.200106
 10
554.856096
 20
16.050106
 10
554.856096
 20
13.060106
 10
561.161712
 20
13.060106
 10
561.59498
 20
16.200106
 10
567.880437
 20
16.050106
 10
567.880437
 20
13.060106
 10
574.186053
 20
13.060106
 10
574.619321
 20
16.200106
 10
580.904778
 20
16.050106
 10
580.904778
 20
13.060106
 10
587.210394
 20
13.060106
 10
587.643663
 20
16.200106
 10
588.555751
 20
22.810228
 10
589.110726
 20
28.053645
 10
589.742163
 20
33.300767
 10
590.247088
 20
38.592996
 10
590.406251
 20
41.242859
 10
590.557926
 20
42.833125
 10
590.659264
 20
43.895616
 10
591.07236
 20
49.20647
 10
591.328855
 20
54.519332
 10
591.399289
 20
55.582174
 10
591.457519
 20
57.177654
 10
591.553965
 20
58.773264
 10
591.586598
 20
59.837963
 10
591.846032
 20
65.161188
 10
591.97733
 20
70.351838
 10
591.976426
 20
71.650059
 10
591.996276
 20
72.660355
 10
592.017732
 20
75.544411
 10
592.062631
 20
80.737894
 10
591.958587
 20
85.33591
 10
591.958629
 20
86.255761
 10
591.910901
 20
87.633359
 10
591.902651
 20
89.012334
 10
591.865322
 20
89.930348
 10
591.778104
 20
94.519402
 10
591.523116
 20
98.701107
 10
591.492486
 20
99.537446
 10
591.399195
 20
100.788686
 10
591.344745
 20
102.041446
 10
591.276946
 20
102.874589
 10
591.035572
 20
107.038399
 10
590.63488
 20
110.898497
 10
590.574616
 20
111.669602
 10
590.437499
 20
112.824128
 10
590.338513
 20
113.978832
 10
590.241452
 20
114.747332
 10
589.85163
 20
118.584766
 10
589.040503
 20
123.975706
 10
588.897892
 20
125.052183
 10
588.803248
 20
125.766583
 10
588.238511
 20
129.336962
 10
587.557142
 20
132.714288
 10
587.439153
 20
133.389771
 10
587.246727
 20
134.404471
 10
587.032871
 20
135.407125
 10
586.880174
 20
136.076631
 10
586.203942
 20
139.423178
 10
585.382185
 20
142.624242
 10
585.235156
 20
143.263872
 10
584.999114
 20
144.225258
 10
584.743302
 20
145.174699
 10
584.562606
 20
145.809034
 10
583.745564
 20
148.979039
 10
582.647419
 20
152.716417
 10
581.463234
 20
156.438089
 10
580.285268
 20
160.145245
  0
LWPOLYLINE
  5
22
100
AcDbEntity
  8
C1
  6
BYBLOCK
100
AcDbPolyline
 90
      144
 70
     1
 43
0.0
 10
388.571364
 20
314.111705
 10
374.36697
 20
312.040744
 10
364.99524
 20
310.89068
 10
364.996196
 20
310.897279
 10
356.164459
 20
310.02728
 10
338.360581
 20
308.538909
 10
322.12617
 20
307.666548
 10
307.840632
 20
307.358081
 10
293.527153
 20
307.533131
 10
291.660578
 20
294.643237
 10
305.974058
 20
294.468188
 10
320.259596
 20
294.776654
 10
336.494007
 20
295.649015
 10
354.297884
 20
297.137386
 10
359.910956
 20
297.69032
 10
361.044348
 20
304.470466
 10
364.003483
 20
304.041956
 10
363.129622
 20
298.007385
 10
363.397369
 20
298.033761
 10
372.500396
 20
299.15085
 10
386.70479
 20
301.221812
 10
399.860877
 20
303.644453
 10
411.003044
 20
305.811812
 10
414.72942
 20
306.598831
 10
422.174096
 20
307.990198
 10
426.011804
 20
308.624716
 10
429.864768
 20
309.263308
 10
433.720946
 20
309.814497
 10
436.975322
 20
310.168798
 10
437.629005
 20
310.25672
 10
438.605306
 20
310.373823
 10
439.590596
 20
310.469648
 10
440.244695
 20
310.523491
 10
443.530485
 20
310.878007
 10
446.9394
 20
311.06765
 10
447.623878
 20
311.122821
 10
448.646831
 20
311.190775
 10
449.678634
 20
311.235793
 10
450.364053
 20
311.255758
 10
453.804166
 20
311.446074
 10
457.418624
 20
311.493295
 10
458.139213
 20
311.484579
 10
459.225016
 20
311.471443
 10
464.676552
 20
311.501598
 10
468.53024
 20
311.337437
 10
469.304718
 20
311.323359
 10
470.461688
 20
311.255837
 10
471.623947
 20
311.226079
 10
472.395729
 20
311.175211
 10
476.273405
 20
311.018559
 10
480.428825
 20
310.660708
 10
481.263084
 20
310.608406
 10
482.510716
 20
310.482755
 10
483.762409
 20
310.395763
 10
484.594505
 20
310.306217
 10
488.769586
 20
309.959275
 10
493.323768
 20
309.387915
 10
494.237655
 20
309.293294
 10
495.603578
 20
309.103833
 10
496.973795
 20
308.953638
 10
497.884145
 20
308.821769
 10
502.449608
 20
308.265778
 10
507.583045
 20
307.477042
 10
510.434255
 20
307.042481
 10
511.431277
 20
306.878046
 10
512.716226
 20
306.692887
 10
517.834477
 20
305.81905
 10
523.065571
 20
304.7994
 10
524.114603
 20
304.614517
 10
525.67992
 20
304.290393
 10
527.250585
 20
304.004109
 10
528.292361
 20
303.782081
 10
533.51362
 20
302.766825
 10
538.710449
 20
301.596872
 10
539.747449
 20
301.34431
 10
541.299561
 20
300.966293
 10
543.89926
 20
300.429009
 10
549.064496
 20
299.170845
 10
554.166959
 20
297.793938
 10
559.276713
 20
296.493235
 10
565.687885
 20
294.643237
 10
566.737133
 20
300.842313
 10
569.696268
 20
300.413804
 10
570.599953
 20
306.654328
 10
567.55446
 20
307.533131
 10
561.143288
 20
309.383129
 10
556.033533
 20
310.683832
 10
550.93107
 20
312.060738
 10
545.765835
 20
313.318903
 10
543.166136
 20
313.856187
 10
541.614023
 20
314.234204
 10
540.577023
 20
314.486766
 10
535.380194
 20
315.656719
 10
530.158935
 20
316.671975
 10
529.117159
 20
316.894002
 10
527.546494
 20
317.180286
 10
525.981177
 20
317.504411
 10
524.932145
 20
317.689293
 10
519.701051
 20
318.708944
 10
514.5828
 20
319.582781
 10
513.297851
 20
319.767939
 10
512.300829
 20
319.932374
 10
509.449619
 20
320.366935
 10
504.316182
 20
321.155671
 10
499.750719
 20
321.711663
 10
498.84037
 20
321.843532
 10
497.470152
 20
321.993726
 10
496.10423
 20
322.183188
 10
495.190342
 20
322.277809
 10
490.636161
 20
322.849169
 10
486.461079
 20
323.196111
 10
485.628984
 20
323.285656
 10
484.37729
 20
323.372649
 10
483.129658
 20
323.498299
 10
482.295399
 20
323.550602
 10
478.139979
 20
323.908453
 10
474.262303
 20
324.065104
 10
473.490521
 20
324.115973
 10
472.328262
 20
324.145731
 10
471.171292
 20
324.213253
 10
470.396815
 20
324.227331
 10
466.543127
 20
324.391492
 10
461.09159
 20
324.361337
 10
460.005787
 20
324.374472
 10
459.285198
 20
324.383189
 10
455.67074
 20
324.335968
 10
452.230628
 20
324.145652
 10
451.545208
 20
324.125687
 10
450.513405
 20
324.080669
 10
449.490453
 20
324.012715
 10
448.805974
 20
323.957544
 10
445.397059
 20
323.767901
 10
442.111269
 20
323.413385
 10
441.457171
 20
323.359541
 10
440.471881
 20
323.263716
 10
439.495579
 20
323.146614
 10
438.841896
 20
323.058692
 10
435.58752
 20
322.704391
 10
431.731343
 20
322.153202
 10
427.878378
 20
321.51461
 10
424.040671
 20
320.880092
 10
416.595994
 20
319.488725
 10
412.869618
 20
318.701706
 10
401.727451
 20
316.534346
  0
LWPOLYLINE
  5
23
100
AcDbEntity
  8
L1
  6
BYBLOCK
100
AcDbPolyline
 90
       68
 70
     0
 43
0.0
 10
327.15684
 20
16.200106
 10
328.068929
 20
22.810228
 10
328.623904
 20
28.053645
 10
329.255341
 20
33.300767
 10
329.760266
 20
38.592996
 10
329.919429
 20
41.242859
 10
330.071104
 20
42.833125
 10
330.172442
 20
43.895616
 10
330.585538
 20
49.20647
 10
330.842033
 20
54.519332
 10
330.912467
 20
55.582174
 10
330.970697
 20
57.177654
 10
331.067143
 20
58.773264
 10
331.099776
 20
59.837963
 10
331.35921
 20
65.161188
 10
331.490508
 20
70.351838
 10
331.489604
 20
71.650059
 10
331.509454
 20
72.660355
 10
331.53091
 20
75.544411
 10
331.575809
 20
80.737894
 10
331.471765
 20
85.33591
 10
331.471807
 20
86.255761
 10
331.424079
 20
87.633359
 10
331.415829
 20
89.012334
 10
331.3785
 20
89.930348
 10
331.291282
 20
94.519402
 10
331.036294
 20
98.701107
 10
331.005664
 20
99.537446
 10
330.912373
 20
100.788686
 10
330.857923
 20
102.041446
 10
330.790124
 20
102.874589
 10
330.54875
 20
107.038399
 10
330.148058
 20
110.898497
 10
330.087794
 20
111.669602
 10
329.950677
 20
112.824128
 10
329.851691
 20
113.978832
 10
329.75463
 20
114.747332
 10
329.364808
 20
118.584766
 10
328.553681
 20
123.975706
 10
328.41107
 20
125.052183
 10
328.316426
 20
125.766583
 10
327.751689
 20
129.336962
 10
327.07032
 20
132.714288
 10
326.952331
 20
133.389771
 10
326.759905
 20
134.404471
 10
326.546049
 20
135.407125
 10
326.393352
 20
136.076631
 10
325.71712
 20
139.423178
 10
324.895363
 20
142.624242
 10
324.748334
 20
143.263872
 10
324.512292
 20
144.225258
 10
324.25648
 20
145.174699
 10
324.075784
 20
145.809034
 10
323.258742
 20
148.979039
 10
322.160597
 20
152.716417
 10
320.976412
 20
156.438089
 10
319.798446
 20
160.145245
 10
317.354513
 20
167.313669
 10
316.041575
 20
170.888787
 10
312.299757
 20
181.605323
 10
308.016669
 20
194.278403
 10
303.931393
 20
208.03937
 10
301.521241
 20
216.888334
 10
299.330033
 20
225.765423
 10
295.305476
 20
243.17221
 10
292.115497
 20
259.114015
 10
289.762893
 20
273.207879
 10
287.884809
 20
287.398691
  0
LWPOLYLINE
  5
25
100
AcDbEntity
  8
L1
  6
BYBLOCK
100
AcDbPolyline
 90
       68
 70
     0
 43
0.0
 10
314.132499
 20
16.200106
 10
315.044588
 20
22.810228
 10
315.599563
 20
28.053645
 10
316.231
 20
33.300767
 10
316.735925
 20
38.592996
 10
316.895088
 20
41.242859
 10
317.046763
 20
42.833125
 10
317.148101
 20
43.895616
 10
317.561197
 20
49.20647
 10
317.817692
 20
54.519332
 10
317.888126
 20
55.582174
 10
317.946356
 20
57.177654
 10
318.042802
 20
58.773264
 10
318.075435
 20
59.837963
 10
318.334869
 20
65.161188
 10
318.466167
 20
70.351838
 10
318.465263
 20
71.650059
 10
318.485113
 20
72.660355
 10
318.506569
 20
75.544411
 10
318.551468
 20
80.737894
 10
318.447424
 20
85.33591
 10
318.447466
 20
86.255761
 10
318.399738
 20
87.633359
 10
318.391488
 20
89.012334
 10
318.354159
 20
89.930348
 10
318.266941
 20
94.519402
 10
318.011953
 20
98.701107
 10
317.981323
 20
99.537446
 10
317.888032
 20
100.788686
 10
317.833582
 20
102.041446
 10
317.765783
 20
102.874589
 10
317.524409
 20
107.038399
 10
317.123717
 20
110.898497
 10
317.063453
 20
111.669602
 10
316.926336
 20
112.824128
 10
316.82735
 20
113.978832
 10
316.730289
 20
114.747332
 10
316.340467
 20
118.584766
 10
315.52934
 20
123.975706
 10
315.386729
 20
125.052183
 10
315.292085
 20
125.766583
 10
314.727348
 20
129.336962
 10
314.045979
 20
132.714288
 10
313.92799
 20
133.389771
 10
313.735564
 20
134.404471
 10
313.521708
 20
135.407125
 10
313.369011
 20
136.076631
 10
312.692779
 20
139.423178
 10
311.871022
 20
142.624242
 10
311.723993
 20
143.263872
 10
311.487951
 20
144.225258
 10
311.232139
 20
145.174699
 10
311.051443
 20
145.809034
 10
310.234401
 20
148.979039
 10
309.136256
 20
152.716417
 10
307.952071
 20
156.438089
 10
306.774105
 20
160.145245
 10
304.330172
 20
167.313669
 10
303.017234
 20
170.888787
 10
299.275416
 20
181.605323
 10
294.992328
 20
194.278403
 10
290.907052
 20
208.03937
 10
288.4969
 20
216.888334
 10
286.305692
 20
225.765423
 10
282.281135
 20
243.17221
 10
279.091156
 20
259.114015
 10
276.738552
 20
273.207879
 10
274.860468
 20
287.398691
  0
LWPOLYLINE
  5
26
100
AcDbEntity
  8
L1
  6
BYBLOCK
100
AcDbPolyline
 90
       68
 70
     0
 43
0.0
 10
301.108158
 20
16.200106
 10
302.020246
 20
22.810228
 10
302.575221
 20
28.053645
 10
303.206658
 20
33.300767
 10
303.711583
 20
38.592996
 10
303.870746
 20
41.242859
 10
304.022421
 20
42.833125
 10
304.123759
 20
43.895616
 10
304.536855
 20
49.20647
 10
304.79335
 20
54.519332
 10
304.863784
 20
55.582174
 10
304.922014
 20
57.177654
 10
305.01846
 20
58.773264
 10
305.051093
 20
59.837963
 10
305.310527
 20
65.161188
 10
305.441825
 20
70.351838
 10
305.440921
 20
71.650059
 10
305.460771
 20
72.660355
 10
305.482227
 20
75.544411
 10
305.527126
 20
80.737894
 10
305.423082
 20
85.33591
 10
305.423124
 20
86.255761
 10
305.375396
 20
87.633359
 10
305.367146
 20
89.012334
 10
305.329817
 20
89.930348
 10
305.242599
 20
94.519402
 10
304.987611
 20
98.701107
 10
304.956981
 20
99.537446
 10
304.86369
 20
100.788686
 10
304.80924
 20
102.041446
 10
304.741441
 20
102.874589
 10
304.500067
 20
107.038399
 10
304.099375
 20
110.898497
 10
304.039111
 20
111.669602
 10
303.901994
 20
112.824128
 10
303.803008
 20
113.978832
 10
303.705947
 20
114.747332
 10
303.316125
 20
118.584766
 10
302.504998
 20
123.975706
 10
302.362387
 20
125.052183
 10
302.267743
 20
125.766583
 10
301.703006
 20
129.336962
 10
301.021637
 20
132.714288
 10
300.903648
 20
133.389771
 10
300.711222
 20
134.404471
 10
300.497366
 20
135.407125
 10
300.344669
 20
136.076631
 10
299.668437
 20
139.423178
 10
298.84668
 20
142.624242
 10
298.699651
 20
143.263872
 10
298.463609
 20
144.225258
 10
298.207797
 20
145.174699
 10
298.027101
 20
145.809034
 10
297.210059
 20
148.979039
 10
296.111914
 20
152.716417
 10
294.927729
 20
156.438089
 10
293.749763
 20
160.145245
 10
291.30583
 20
167.313669
 10
289.992892
 20
170.888787
 10
286.251074
 20
181.605323
 10
281.967986
 20
194.278403
 10
277.88271
 20
208.03937
 10
275.472558
 20
216.888334
 10
273.28135
 20
225.765423
 10
269.256793
 20
243.17221
 10
266.066814
 20
259.114015
 10
263.71421
 20
273.207879
 10
261.836126
 20
287.398691
  0
LWPOLYLINE
  5
27
100
AcDbEntity
  8
L1
  6
BYBLOCK
100
AcDbPolyline
 90
       68
 70
     0
 43
0.0
 10
288.083816
 20
16.200106
 10
288.995905
 20
22.810228
 10
289.55088
 20
28.053645
 10
290.182317
 20
33.300767
 10
290.687242
 20
38.592996
 10
290.846405
 20
41.242859
 10
290.99808
 20
42.833125
 10
291.099418
 20
43.895616
 10
291.512514
 20
49.20647
 10
291.769009
 20
54.519332
 10
291.839443
 20
55.582174
 10
291.897673
 20
57.177654
 10
291.994119
 20
58.773264
 10
292.026752
 20
59.837963
 10
292.286186
 20
65.161188
 10
292.417484
 20
70.351838
 10
292.41658
 20
71.650059
 10
292.43643
 20
72.660355
 10
292.457886
 20
75.544411
 10
292.502785
 20
80.737894
 10
292.398741
 20
85.33591
 10
292.398783
 20
86.255761
 10
292.351055
 20
87.633359
 10
292.342805
 20
89.012334
 10
292.305476
 20
89.930348
 10
292.218258
 20
94.519402
 10
291.96327
 20
98.701107
 10
291.93264
 20
99.537446
 10
291.839349
 20
100.788686
 10
291.784899
 20
102.041446
 10
291.7171
 20
102.874589
 10
291.475726
 20
107.038399
 10
291.075034
 20
110.898497
 10
291.01477
 20
111.669602
 10
290.877653
 20
112.824128
 10
290.778667
 20
113.978832
 10
290.681606
 20
114.747332
 10
290.291784
 20
118.584766
 10
289.480657
 20
123.975706
 10
289.338046
 20
125.052183
 10
289.243402
 20
125.766583
 10
288.678665
 20
129.336962
 10
287.997296
 20
132.714288
 10
287.879307
 20
133.389771
 10
287.686881
 20
134.404471
 10
287.473025
 20
135.407125
 10
287.320328
 20
136.076631
 10
286.644096
 20
139.423178
 10
285.822339
 20
142.624242
 10
285.67531
 20
143.263872
 10
285.439268
 20
144.225258
 10
285.183456
 20
145.174699
 10
285.00276
 20
145.809034
 10
284.185718
 20
148.979039
 10
283.087573
 20
152.716417
 10
281.903388
 20
156.438089
 10
280.725422
 20
160.145245
 10
278.281489
 20
167.313669
 10
276.968551
 20
170.888787
 10
273.226733
 20
181.605323
 10
268.943645
 20
194.278403
 10
264.858369
 20
208.03937
 10
262.448217
 20
216.888334
 10
260.257009
 20
225.765423
 10
256.232452
 20
243.17221
 10
253.042473
 20
259.114015
 10
250.689869
 20
273.207879
 10
248.811785
 20
287.398691
  0
LWPOLYLINE
  5
28
100
AcDbEntity
  8
L1
  6
BYBLOCK
100
AcDbPolyline
 90
       68
 70
     0
 43
0.0
 10
275.059475
 20
16.200106
 10
275.971564
 20
22.810228
 10
276.526539
 20
28.053645
 10
277.157976
 20
33.300767
 10
277.662901
 20
38.592996
 10
277.822064
 20
41.242859
 10
277.973739
 20
42.833125
 10
278.075077
 20
43.895616
 10
278.488173
 20
49.20647
 10
278.744668
 20
54.519332
 10
278.815102
 20
55.582174
 10
278.873332
 20
57.177654
 10
278.969778
 20
58.773264
 10
279.002411
 20
59.837963
 10
279.261845
 20
65.161188
 10
279.393143
 20
70.351838
 10
279.392239
 20
71.650059
 10
279.412089
 20
72.660355
 10
279.433545
 20
75.544411
 10
279.478444
 20
80.737894
 10
279.3744
 20
85.33591
 10
279.374442
 20
86.255761
 10
279.326714
 20
87.633359
 10
279.318464
 20
89.012334
 10
279.281135
 20
89.930348
 10
279.193917
 20
94.519402
 10
278.938929
 20
98.701107
 10
278.908299
 20
99.537446
 10
278.815008
 20
100.788686
 10
278.760558
 20
102.041446
 10
278.692759
 20
102.874589
 10
278.451385
 20
107.038399
 10
278.050693
 20
110.898497
 10
277.990429
 20
111.669602
 10
277.853312
 20
112.824128
 10
277.754326
 20
113.978832
 10
277.657265
 20
114.747332
 10
277.267443
 20
118.584766
 10
276.456316
 20
123.975706
 10
276.313705
 20
125.052183
 10
276.219061
 20
125.766583
 10
275.654324
 20
129.336962
 10
274.972955
 20
132.714288
 10
274.854966
 20
133.389771
 10
274.66254
 20
134.404471
 10
274.448684
 20
135.407125
 10
274.295987
 20
136.076631
 10
273.619755
 20
139.423178
 10
272.797998
 20
142.624242
 10
272.650969
 20
143.263872
 10
272.414927
 20
144.225258
 10
272.159115
 20
145.174699
 10
271.978419
 20
145.809034
 10
271.161377
 20
148.979039
 10
270.063232
 20
152.716417
 10
268.879047
 20
156.438089
 10
267.701081
 20
160.145245
 10
265.257148
 20
167.313669
 10
263.94421
 20
170.888787
 10
260.202392
 20
181.605323
 10
255.919304
 20
194.278403
 10
251.834028
 20
208.03937
 10
249.423876
 20
216.888334
 10
247.232668
 20
225.765423
 10
243.208111
 20
243.17221
 10
240.018132
 20
259.114015
 10
237.665528
 20
273.207879
 10
235.787444
 20
287.398691
  0
LWPOLYLINE
  5
29
100
AcDbEntity
  8
L1
  6
BYBLOCK
100
AcDbPolyline
 90
       68
 70
     0
 43
0.0
 10
262.035134
 20
16.200106
 10
262.947223
 20
22.810228
 10
263.502198
 20
28.053645
 10
264.133635
 20
33.300767
 10
264.63856
 20
38.592996
 10
264.797723
 20
41.242859
 10
264.949398
 20
42.833125
 10
265.050736
 20
43.895616
 10
265.463832
 20
49.20647
 10
265.720327
 20
54.519332
 10
265.790761
 20
55.582174
 10
265.848991
 20
57.177654
 10
265.945437
 20
58.773264
 10
265.97807
 20
59.837963
 10
266.237504
 20
65.161188
 10
266.368802
 20
70.351838
 10
266.367898
 20
71.650059
 10
266.387748
 20
72.660355
 10
266.409204
 20
75.544411
 10
266.454103
 20
80.737894
 10
266.350059
 20
85.33591
 10
266.350101
 20
86.255761
 10
266.302373
 20
87.633359
 10
266.294123
 20
89.012334
 10
266.256794
 20
89.930348
 10
266.169576
 20
94.519402
 10
265.914588
 20
98.701107
 10
265.883958
 20
99.537446
 10
265.790667
 20
100.788686
 10
265.736217
 20
102.041446
 10
265.668418
 20
102.874589
 10
265.427044
 20
107.038399
 10
265.026352
 20
110.898497
 10
264.966088
 20
111.669602
 10
264.828971
 20
112.824128
 10
264.729985
 20
113.978832
 10
264.632924
 20
114.747332
 10
264.243102
 20
118.584766
 10
263.431975
 20
123.975706
 10
263.289364
 20
125.052183
 10
263.19472
 20
125.766583
 10
262.629983
 20
129.336962
 10
261.948614
 20
132.714288
 10
261.830625
 20
133.389771
 10
261.638199
 20
134.404471
 10
261.424343
 20
135.407125
 10
261.271646
 20
136.076631
 10
260.595414
 20
139.423178
 10
259.773657
 20
142.624242
 10
259.626628
 20
143.263872
 10
259.390586
 20
144.225258
 10
259.134774
 20
145.174699
 10
258.954078
 20
145.809034
 10
258.137036
 20
148.979039
 10
257.038891
 20
152.716417
 10
255.854706
 20
156.438089
 10
254.67674
 20
160.145245
 10
252.232807
 20
167.313669
 10
250.919869
 20
170.888787
 10
247.178051
 20
181.605323
 10
242.894963
 20
194.278403
 10
238.809687
 20
208.03937
 10
236.399535
 20
216.888334
 10
234.208327
 20
225.765423
 10
230.18377
 20
243.17221
 10
226.993791
 20
259.114015
 10
224.641187
 20
273.207879
 10
222.763103
 20
287.398691
  0
LWPOLYLINE
  5
2A
100
AcDbEntity
  8
L1
  6
BYBLOCK
100
AcDbPolyline
 90
       68
 70
     0
 43
0.0
 10
249.010793
 20
16.200106
 10
249.922882
 20
22.810228
 10
250.477857
 20
28.053645
 10
251.109294
 20
33.300767
 10
251.614219
 20
38.592996
 10
251.773382
 20
41.242859
 10
251.925057
 20
42.833125
 10
252.026395
 20
43.895616
 10
252.439491
 20
49.20647
 10
252.695986
 20
54.519332
 10
252.76642
 20
55.582174
 10
252.82465
 20
57.177654
 10
252.921096
 20
58.773264
 10
252.953729
 20
59.837963
 10
253.213163
 20
65.161188
 10
253.344461
 20
70.351838
 10
253.343557
 20
71.650059
 10
253.363407
 20
72.660355
 10
253.384863
 20
75.544411
 10
253.429762
 20
80.737894
 10
253.325718
 20
85.33591
 10
253.32576
 20
86.255761
 10
253.278032
 20
87.633359
 10
253.269782
 20
89.012334
 10
253.232453
 20
89.930348
 10
253.145235
 20
94.519402
 10
252.890247
 20
98.701107
 10
252.859617
 20
99.537446
 10
252.766326
 20
100.788686
 10
252.711876
 20
102.041446
 10
252.644077
 20
102.874589
 10
252.402703
 20
107.038399
 10
252.002011
 20
110.898497
 10
251.941747
 20
111.669602
 10
251.80463
 20
112.824128
 10
251.705644
 20
113.978832
 10
251.608583
 20
114.747332
 10
251.218761
 20
118.584766
 10
250.407634
 20
123.975706
 10
250.265023
 20
125.052183
 10
250.170379
 20
125.766583
 10
249.605642
 20
129.336962
 10
248.924273
 20
132.714288
 10
248.806284
 20
133.389771
 10
248.613858
 20
134.404471
 10
248.400002
 20
135.407125
 10
248.247305
 20
136.076631
 10
247.571073
 20
139.423178
 10
246.749316
 20
142.624242
 10
246.602287
 20
143.263872
 10
246.366245
 20
144.225258
 10
246.110433
 20
145.174699
 10
245.929737
 20
145.809034
 10
245.112695
 20
148.979039
 10
244.01455
 20
152.716417
 10
242.830365
 20
156.438089
 10
241.652399
 20
160.145245
 10
239.208466
 20
167.313669
 10
237.895528
 20
170.888787
 10
234.15371
 20
181.605323
 10
229.870622
 20
194.278403
 10
225.785346
 20
208.03937
 10
223.375194
 20
216.888334
 10
221.183986
 20
225.765423
 10
217.159429
 20
243.17221
 10
213.96945
 20
259.114015
 10
211.616846
 20
273.207879
 10
209.738762
 20
287.398691
  0
LWPOLYLINE
  5
2B
100
AcDbEntity
  8
L1
  6
BYBLOCK
100
AcDbPolyline
 90
       68
 70
     0
 43
0.0
 10
235.986452
 20
16.200106
 10
236.898541
 20
22.810228
 10
237.453516
 20
28.053645
 10
238.084953
 20
33.300767
 10
238.589878
 20
38.592996
 10
238.749041
 20
41.242859
 10
238.900716
 20
42.833125
 10
239.002054
 20
43.895616
 10
239.41515
 20
49.20647
 10
239.671645
 20
54.519332
 10
239.742079
 20
55.582174
 10
239.800309
 20
57.177654
 10
239.896755
 20
58.773264
 10
239.929388
 20
59.837963
 10
240.188822
 20
65.161188
 10
240.32012
 20
70.351838
 10
240.319216
 20
71.650059
 10
240.339066
 20
72.660355
 10
240.360522
 20
75.544411
 10
240.405421
 20
80.737894
 10
240.301377
 20
85.33591
 10
240.301419
 20
86.255761
 10
240.253691
 20
87.633359
 10
240.245441
 20
89.012334
 10
240.208112
 20
89.930348
 10
240.120894
 20
94.519402
 10
239.865906
 20
98.701107
 10
239.835276
 20
99.537446
 10
239.741985
 20
100.788686
 10
239.687535
 20
102.041446
 10
239.619736
 20
102.874589
 10
239.378362
 20
107.038399
 10
238.97767
 20
110.898497
 10
238.917406
 20
111.669602
 10
238.780289
 20
112.824128
 10
238.681303
 20
113.978832
 10
238.584242
 20
114.747332
 10
238.19442
 20
118.584766
 10
237.383293
 20
123.975706
 10
237.240682
 20
125.052183
 10
237.146038
 20
125.766583
 10
236.581301
 20
129.336962
 10
235.899932
 20
132.714288
 10
235.781943
 20
133.389771
 10
235.589517
 20
134.404471
 10
235.375661
 20
135.407125
 10
235.222964
 20
136.076631
 10
234.546732
 20
139.423178
 10
233.724975
 20
142.624242
 10
233.577946
 20
143.263872
 10
233.341904
 20
144.225258
 10
233.086092
 20
145.174699
 10
232.905396
 20
145.809034
 10
232.088354
 20
148.979039
 10
230.990209
 20
152.716417
 10
229.806024
 20
156.438089
 10
228.628058
 20
160.145245
 10
226.184125
 20
167.313669
 10
224.871187
 20
170.888787
 10
221.129369
 20
181.605323
 10
216.846281
 20
194.278403
 10
212.761005
 20
208.03937
 10
210.350853
 20
216.888334
 10
208.159645
 20
225.765423
 10
204.135088
 20
243.17221
 10
200.945109
 20
259.114015
 10
198.592505
 20
273.207879
 10
196.714421
 20
287.398691
  0
LWPOLYLINE
  5
2C
100
AcDbEntity
  8
L1
  6
BYBLOCK
100
AcDbPolyline
 90
       68
 70
     0
 43
0.0
 10
222.962111
 20
16.200106
 10
223.8742
 20
22.810228
 10
224.429175
 20
28.053645
 10
225.060612
 20
33.300767
 10
225.565537
 20
38.592996
 10
225.7247
 20
41.242859
 10
225.876375
 20
42.833125
 10
225.977713
 20
43.895616
 10
226.390809
 20
49.20647
 10
226.647304
 20
54.519332
 10
226.717738
 20
55.582174
 10
226.775968
 20
57.177654
 10
226.872414
 20
58.773264
 10
226.905047
 20
59.837963
 10
227.164481
 20
65.161188
 10
227.295779
 20
70.351838
 10
227.294875
 20
71.650059
 10
227.314725
 20
72.660355
 10
227.336181
 20
75.544411
 10
227.38108
 20
80.737894
 10
227.277036
 20
85.33591
 10
227.277078
 20
86.255761
 10
227.22935
 20
87.633359
 10
227.2211
 20
89.012334
 10
227.183771
 20
89.930348
 10
227.096553
 20
94.519402
 10
226.841565
 20
98.701107
 10
226.810935
 20
99.537446
 10
226.717644
 20
100.788686
 10
226.663194
 20
102.041446
 10
226.595395
 20
102.874589
 10
226.354021
 20
107.038399
 10
225.953329
 20
110.898497
 10
225.893065
 20
111.669602
 10
225.755948
 20
112.824128
 10
225.656962
 20
113.978832
 10
225.559901
 20
114.747332
 10
225.170079
 20
118.584766
 10
224.358952
 20
123.975706
 10
224.216341
 20
125.052183
 10
224.121697
 20
125.766583
 10
223.55696
 20
129.336962
 10
222.875591
 20
132.714288
 10
222.757602
 20
133.389771
 10
222.565176
 20
134.404471
 10
222.35132
 20
135.407125
 10
222.198623
 20
136.076631
 10
221.522391
 20
139.423178
 10
220.700634
 20
142.624242
 10
220.553605
 20
143.263872
 10
220.317563
 20
144.225258
 10
220.061751
 20
145.174699
 10
219.881055
 20
145.809034
 10
219.064013
 20
148.979039
 10
217.965868
 20
152.716417
 10
216.781683
 20
156.438089
 10
215.603717
 20
160.145245
 10
213.159784
 20
167.313669
 10
211.846846
 20
170.888787
 10
208.105028
 20
181.605323
 10
203.82194
 20
194.278403
 10
199.736664
 20
208.03937
 10
197.326512
 20
216.888334
 10
195.135304
 20
225.765423
 10
191.110747
 20
243.17221
 10
187.920768
 20
259.114015
 10
185.568164
 20
273.207879
 10
183.69008
 20
287.398691
  0
LWPOLYLINE
  5
2D
100
AcDbEntity
  8
L1
  6
BYBLOCK
100
AcDbPolyline
 90
       68
 70
     0
 43
0.0
 10
209.93777
 20
16.200106
 10
210.849858
 20
22.810228
 10
211.404833
 20
28.053645
 10
212.03627
 20
33.300767
 10
212.541195
 20
38.592996
 10
212.700358
 20
41.242859
 10
212.852033
 20
42.833125
 10
212.953371
 20
43.895616
 10
213.366467
 20
49.20647
 10
213.622962
 20
54.519332
 10
213.693396
 20
55.582174
 10
213.751626
 20
57.177654
 10
213.848072
 20
58.773264
 10
213.880705
 20
59.837963
 10
214.140139
 20
65.161188
 10
214.271437
 20
70.351838
 10
214.270533
 20
71.650059
 10
214.290383
 20
72.660355
 10
214.311839
 20
75.544411
 10
214.356738
 20
80.737894
 10
214.252694
 20
85.33591
 10
214.252736
 20
86.255761
 10
214.205008
 20
87.633359
 10
214.196758
 20
89.012334
 10
214.159429
 20
89.930348
 10
214.072211
 20
94.519402
 10
213.817223
 20
98.701107
 10
213.786593
 20
99.537446
 10
213.693302
 20
100.788686
 10
213.638852
 20
102.041446
 10
213.571053
 20
102.874589
 10
213.329679
 20
107.038399
 10
212.928987
 20
110.898497
 10
212.868723
 20
111.669602
 10
212.731606
 20
112.824128
 10
212.63262
 20
113.978832
 10
212.535559
 20
114.747332
 10
212.145737
 20
118.584766
 10
211.33461
 20
123.975706
 10
211.191999
 20
125.052183
 10
211.097355
 20
125.766583
 10
210.532618
 20
129.336962
 10
209.851249
 20
132.714288
 10
209.73326
 20
133.389771
 10
209.540834
 20
134.404471
 10
209.326978
 20
135.407125
 10
209.174281
 20
136.076631
 10
208.498049
 20
139.423178
 10
207.676292
 20
142.624242
 10
207.529263
 20
143.263872
 10
207.293221
 20
144.225258
 10
207.037409
 20
145.174699
 10
206.856713
 20
145.809034
 10
206.039671
 20
148.979039
 10
204.941526
 20
152.716417
 10
203.757341
 20
156.438089
 10
202.579375
 20
160.145245
 10
200.135442
 20
167.313669
 10
198.822504
 20
170.888787
 10
195.080686
 20
181.605323
 10
190.797598
 20
194.278403
 10
186.712322
 20
208.03937
 10
184.30217
 20
216.888334
 10
182.110962
 20
225.765423
 10
178.086405
 20
243.17221
 10
174.896426
 20
259.114015
 10
172.543822
 20
273.207879
 10
170.665738
 20
287.398691
  0
LWPOLYLINE
  5
2E
100
AcDbEntity
  8
L1
  6
BYBLOCK
100
AcDbPolyline
 90
       68
 70
     0
 43
0.0
 10
196.913428
 20
16.200106
 10
197.825517
 20
22.810228
 10
198.380492
 20
28.053645
 10
199.011929
 20
33.300767
 10
199.516854
 20
38.592996
 10
199.676017
 20
41.242859
 10
199.827692
 20
42.833125
 10
199.92903
 20
43.895616
 10
200.342126
 20
49.20647
 10
200.598621
 20
54.519332
 10
200.669055
 20
55.582174
 10
200.727285
 20
57.177654
 10
200.823731
 20
58.773264
 10
200.856364
 20
59.837963
 10
201.115798
 20
65.161188
 10
201.247096
 20
70.351838
 10
201.246192
 20
71.650059
 10
201.266042
 20
72.660355
 10
201.287498
 20
75.544411
 10
201.332397
 20
80.737894
 10
201.228353
 20
85.33591
 10
201.228395
 20
86.255761
 10
201.180667
 20
87.633359
 10
201.172417
 20
89.012334
 10
201.135088
 20
89.930348
 10
201.04787
 20
94.519402
 10
200.792882
 20
98.701107
 10
200.762252
 20
99.537446
 10
200.668961
 20
100.788686
 10
200.614511
 20
102.041446
 10
200.546712
 20
102.874589
 10
200.305338
 20
107.038399
 10
199.904646
 20
110.898497
 10
199.844382
 20
111.669602
 10
199.707265
 20
112.824128
 10
199.608279
 20
113.978832
 10
199.511218
 20
114.747332
 10
199.121396
 20
118.584766
 10
198.310269
 20
123.975706
 10
198.167658
 20
125.052183
 10
198.073014
 20
125.766583
 10
197.508277
 20
129.336962
 10
196.826908
 20
132.714288
 10
196.708919
 20
133.389771
 10
196.516493
 20
134.404471
 10
196.302637
 20
135.407125
 10
196.14994
 20
136.076631
 10
195.473708
 20
139.423178
 10
194.651951
 20
142.624242
 10
194.504922
 20
143.263872
 10
194.26888
 20
144.225258
 10
194.013068
 20
145.174699
 10
193.832372
 20
145.809034
 10
193.01533
 20
148.979039
 10
191.917185
 20
152.716417
 10
190.733
 20
156.438089
 10
189.555034
 20
160.145245
 10
187.111101
 20
167.313669
 10
185.798163
 20
170.888787
 10
182.056345
 20
181.605323
 10
177.773257
 20
194.278403
 10
173.687981
 20
208.03937
 10
171.277829
 20
216.888334
 10
169.086621
 20
225.765423
 10
165.062064
 20
243.17221
 10
161.872085
 20
259.114015
 10
159.519481
 20
273.207879
 10
157.641397
 20
287.398691
  0
LWPOLYLINE
  5
2F
100
AcDbEntity
  8
L1
  6
BYBLOCK
100
AcDbPolyline
 90
       68
 70
     0
 43
0.0
 10
183.889087
 20
16.200106
 10
184.801176
 20
22.810228
 10
185.356151
 20
28.053645
 10
185.987588
 20
33.300767
 10
186.492513
 20
38.592996
 10
186.651676
 20
41.242859
 10
186.803351
 20
42.833125
 10
186.904689
 20
43.895616
 10
187.317785
 20
49.20647
 10
187.57428
 20
54.519332
 10
187.644714
 20
55.582174
 10
187.702944
 20
57.177654
 10
187.79939
 20
58.773264
 10
187.832023
 20
59.837963
 10
188.091457
 20
65.161188
 10
188.222755
 20
70.351838
 10
188.221851
 20
71.650059
 10
188.241701
 20
72.660355
 10
188.263157
 20
75.544411
 10
188.308056
 20
80.737894
 10
188.204012
 20
85.33591
 10
188.204054
 20
86.255761
 10
188.156326
 20
87.633359
 10
188.148076
 20
89.012334
 10
188.110747
 20
89.930348
 10
188.023529
 20
94.519402
 10
187.768541
 20
98.701107
 10
187.737911
 20
99.537446
 10
187.64462
 20
100.788686
 10
187.59017
 20
102.041446
 10
187.522371
 20
102.874589
 10
187.280997
 20
107.038399
 10
186.880305
 20
110.898497
 10
186.820041
 20
111.669602
 10
186.682924
 20
112.824128
 10
186.583938
 20
113.978832
 10
186.486877
 20
114.747332
 10
186.097055
 20
118.584766
 10
185.285928
 20
123.975706
 10
185.143317
 20
125.052183
 10
185.048673
 20
125.766583
 10
184.483936
 20
129.336962
 10
183.802567
 20
132.714288
 10
183.684578
 20
133.389771
 10
183.492152
 20
134.404471
 10
183.278296
 20
135.407125
 10
183.125599
 20
136.076631
 10
182.449367
 20
139.423178
 10
181.62761
 20
142.624242
 10
181.480581
 20
143.263872
 10
181.244539
 20
144.225258
 10
180.988727
 20
145.174699
 10
180.808031
 20
145.809034
 10
179.990989
 20
148.979039
 10
178.892844
 20
152.716417
 10
177.708659
 20
156.438089
 10
176.530693
 20
160.145245
 10
174.08676
 20
167.313669
 10
172.773822
 20
170.888787
 10
169.032004
 20
181.605323
 10
164.748916
 20
194.278403
 10
160.66364
 20
208.03937
 10
158.253488
 20
216.888334
 10
156.06228
 20
225.765423
 10
152.037723
 20
243.17221
 10
148.847744
 20
259.114015
 10
146.49514
 20
273.207879
 10
144.617056
 20
287.398691
  0
LWPOLYLINE
  5
30
100
AcDbEntity
  8
L1
  6
BYBLOCK
100
AcDbPolyline
 90
       68
 70
     0
 43
0.0
 10
170.864746
 20
16.200106
 10
171.776835
 20
22.810228
 10
172.33181
 20
28.053645
 10
172.963247
 20
33.300767
 10
173.468172
 20
38.592996
 10
173.627335
 20
41.242859
 10
173.77901
 20
42.833125
 10
173.880348
 20
43.895616
 10
174.293444
 20
49.20647
 10
174.549939
 20
54.519332
 10
174.620373
 20
55.582174
 10
174.678603
 20
57.177654
 10
174.775049
 20
58.773264
 10
174.807682
 20
59.837963
 10
175.067116
 20
65.161188
 10
175.198414
 20
70.351838
 10
175.19751
 20
71.650059
 10
175.21736
 20
72.660355
 10
175.238816
 20
75.544411
 10
175.283715
 20
80.737894
 10
175.179671
 20
85.33591
 10
175.179713
 20
86.255761
 10
175.131985
 20
87.633359
 10
175.123735
 20
89.012334
 10
175.086406
 20
89.930348
 10
174.999188
 20
94.519402
 10
174.7442
 20
98.701107
 10
174.71357
 20
99.537446
 10
174.620279
 20
100.788686
 10
174.565829
 20
102.041446
 10
174.49803
 20
102.874589
 10
174.256656
 20
107.038399
 10
173.855964
 20
110.898497
 10
173.7957
 20
111.669602
 10
173.658583
 20
112.824128
 10
173.559597
 20
113.978832
 10
173.462536
 20
114.747332
 10
173.072714
 20
118.584766
 10
172.261587
 20
123.975706
 10
172.118976
 20
125.052183
 10
172.024332
 20
125.766583
 10
171.459595
 20
129.336962
 10
170.778226
 20
132.714288
 10
170.660237
 20
133.389771
 10
170.467811
 20
134.404471
 10
170.253955
 20
135.407125
 10
170.101258
 20
136.076631
 10
169.425026
 20
139.423178
 10
168.603269
 20
142.624242
 10
168.45624
 20
143.263872
 10
168.220198
 20
144.225258
 10
167.964386
 20
145.174699
 10
167.78369
 20
145.809034
 10
166.966648
 20
148.979039
 10
165.868503
 20
152.716417
 10
164.684318
 20
156.438089
 10
163.506352
 20
160.145245
 10
161.062419
 20
167.313669
 10
159.749481
 20
170.888787
 10
156.007663
 20
181.605323
 10
151.724575
 20
194.278403
 10
147.639299
 20
208.03937
 10
145.229147
 20
216.888334
 10
143.037939
 20
225.765423
 10
139.013382
 20
243.17221
 10
135.823403
 20
259.114015
 10
133.470799
 20
273.207879
 10
131.592715
 20
287.398691
  0
LWPOLYLINE
  5
31
100
AcDbEntity
  8
L1
  6
BYBLOCK
100
AcDbPolyline
 90
       68
 70
     0
 43
0.0
 10
157.840405
 20
16.200106
 10
158.752494
 20
22.810228
 10
159.307469
 20
28.053645
 10
159.938906
 20
33.300767
 10
160.443831
 20
38.592996
 10
160.602994
 20
41.242859
 10
160.754669
 20
42.833125
 10
160.856007
 20
43.895616
 10
161.269103
 20
49.20647
 10
161.525598
 20
54.519332
 10
161.596032
 20
55.582174
 10
161.654262
 20
57.177654
 10
161.750708
 20
58.773264
 10
161.783341
 20
59.837963
 10
162.042775
 20
65.161188
 10
162.174073
 20
70.351838
 10
162.173169
 20
71.650059
 10
162.193019
 20
72.660355
 10
162.214475
 20
75.544411
 10
162.259374
 20
80.737894
 10
162.15533
 20
85.33591
 10
162.155372
 20
86.255761
 10
162.107644
 20
87.633359
 10
162.099394
 20
89.012334
 10
162.062065
 20
89.930348
 10
161.974847
 20
94.519402
 10
161.719859
 20
98.701107
 10
161.689229
 20
99.537446
 10
161.595938
 20
100.788686
 10
161.541488
 20
102.041446
 10
161.473689
 20
102.874589
 10
161.232315
 20
107.038399
 10
160.831623
 20
110.898497
 10
160.771359
 20
111.669602
 10
160.634242
 20
112.824128
 10
160.535256
 20
113.978832
 10
160.438195
 20
114.747332
 10
160.048373
 20
118.584766
 10
159.237246
 20
123.975706
 10
159.094635
 20
125.052183
 10
158.999991
 20
125.766583
 10
158.435254
 20
129.336962
 10
157.753885
 20
132.714288
 10
157.635896
 20
133.389771
 10
157.44347
 20
134.404471
 10
157.229614
 20
135.407125
 10
157.076917
 20
136.076631
 10
156.400685
 20
139.423178
 10
155.578928
 20
142.624242
 10
155.431899
 20
143.263872
 10
155.195857
 20
144.225258
 10
154.940045
 20
145.174699
 10
154.759349
 20
145.809034
 10
153.942307
 20
148.979039
 10
152.844162
 20
152.716417
 10
151.659977
 20
156.438089
 10
150.482011
 20
160.145245
 10
148.038078
 20
167.313669
 10
146.72514
 20
170.888787
 10
142.983322
 20
181.605323
 10
138.700234
 20
194.278403
 10
134.614958
 20
208.03937
 10
132.204806
 20
216.888334
 10
130.013598
 20
225.765423
 10
125.989041
 20
243.17221
 10
122.799062
 20
259.114015
 10
120.446458
 20
273.207879
 10
118.568374
 20
287.398691
  0
CIRCLE
  5
32
100
AcDbEntity
  8
E1
  6
BYBLOCK
100
AcDbCircle
 10
74.867503
 20
82.901843
 30
0.0
 40
57.772398
  0
LWPOLYLINE
  5
34
100
AcDbEntity
  8
C1
  6
BYBLOCK
100
AcDbPolyline
 90
      314
 70
     1
 43
0.0
 10
4.197988
 20
84.709003
 10
4.300578
 20
86.513575
 10
4.389777
 20
88.427643
 10
4.589707
 20
90.534344
 10
4.759197
 20
91.821725
 10
5.160544
 20
93.692727
 10
11.406314
 20
92.591429
 10
11.925523
 20
95.536004
 10
5.567383
 20
96.80943
 10
5.834789
 20
98.075372
 10
6.115835
 20
99.343083
 10
6.631231
 20
101.395527
 10
7.223917
 20
103.426998
 10
7.614374
 20
104.665389
 10
8.098908
 20
105.649275
 10
14.053758
 20
103.481887
 10
15.076398
 20
106.291568
 10
9.028178
 20
108.653805
 10
9.525096
 20
109.853454
 10
10.34416
 20
111.804682
 10
11.236483
 20
113.72352
 10
12.200768
 20
115.607218
 10
13.058047
 20
116.919323
 10
18.551388
 20
113.747741
 10
20.046388
 20
116.337157
 10
14.5093
 20
119.707201
 10
14.939197
 20
120.410225
 10
15.636872
 20
121.50536
 10
16.808392
 20
123.267666
 10
18.045747
 20
124.984376
 10
18.83622
 20
126.014538
 10
19.910789
 20
127.148787
 10
24.764993
 20
123.075627
 10
26.686929
 20
125.366099
 10
21.816888
 20
129.64836
 10
22.925225
 20
130.866862
 10
23.802473
 20
131.82421
 10
25.284602
 20
133.33466
 10
26.822835
 20
134.787944
 10
27.78018
 20
135.665192
 10
28.429987
 20
136.037942
 10
32.507564
 20
131.178474
 10
34.798037
 20
133.100409
 10
30.718857
 20
137.961786
 10
31.016042
 20
138.392002
 10
32.046207
 20
139.182473
 10
33.739184
 20
140.452101
 10
35.478985
 20
141.65676
 10
37.263165
 20
142.794709
 10
38.361816
 20
143.315702
 10
41.546011
 20
137.800515
 10
44.135427
 20
139.295514
 10
41.011878
 20
145.005661
 10
42.049344
 20
145.561778
 10
43.201118
 20
146.161354
 10
45.102708
 20
147.089817
 10
47.038097
 20
147.945659
 10
48.237744
 20
148.442569
 10
49.410753
 20
148.748856
 10
51.579412
 20
142.790514
 10
54.389093
 20
143.813155
 10
52.309123
 20
149.966396
 10
53.437106
 20
150.322045
 10
55.456989
 20
150.95308
 10
57.499309
 20
151.507224
 10
59.561128
 20
151.983695
 10
61.232153
 20
152.192635
 10
62.333134
 20
145.948662
 10
65.277709
 20
146.46787
 10
64.300207
 20
152.875373
 10
64.999196
 20
152.982017
 10
66.286574
 20
153.151503
 10
68.389107
 20
153.391281
 10
70.499205
 20
153.551324
 10
71.79646
 20
153.607964
 10
73.473052
 20
153.521275
 10
73.473052
 20
147.186142
 10
76.463051
 20
147.186142
 10
76.613051
 20
153.665861
 10
78.141938
 20
153.607964
 10
79.4392
 20
153.551324
 10
81.549298
 20
153.391281
 10
83.651857
 20
153.151503
 10
84.939228
 20
152.982017
 10
85.758586
 20
152.707365
 10
84.658473
 20
146.468315
 10
87.603048
 20
145.949107
 10
89.10956
 20
152.264741
 10
90.377277
 20
151.983695
 10
92.439122
 20
151.507224
 10
94.481416
 20
150.95308
 10
96.501325
 20
150.322045
 10
97.718751
 20
149.779964
 10
95.547288
 20
143.813919
 10
98.356969
 20
142.791279
 10
100.716018
 20
148.83414
 10
101.700654
 20
148.442569
 10
102.900301
 20
147.945659
 10
104.83569
 20
147.089817
 10
106.737278
 20
146.161354
 10
107.889051
 20
145.561778
 10
108.982425
 20
144.806465
 10
105.814181
 20
139.318906
 10
108.403597
 20
137.823906
 10
111.777064
 20
143.366924
 10
112.675259
 20
142.794709
 10
114.459413
 20
141.65676
 10
116.19924
 20
140.452101
 10
117.892215
 20
139.182473
 10
118.922379
 20
138.392002
 10
119.218183
 20
137.962903
 10
115.141475
 20
133.104472
 10
117.431948
 20
131.182537
 10
121.714886
 20
136.053385
 10
122.158244
 20
135.665192
 10
123.115595
 20
134.787945
 10
124.653829
 20
133.33466
 10
126.135956
 20
131.82421
 10
127.013203
 20
130.866862
 10
128.106259
 20
129.441677
 10
123.249308
 20
125.366211
 10
125.171243
 20
123.075738
 10
130.233822
 20
127.127935
 10
131.102213
 20
126.014538
 10
131.892686
 20
124.984376
 10
133.130012
 20
123.267666
 10
134.301532
 20
121.50536
 10
134.999209
 20
120.410225
 10
135.378364
 20
119.50603
 10
129.895177
 20
116.340311
 10
131.390177
 20
113.750895
 10
137.138088
 20
116.758993
 10
137.73766
 20
115.607218
 10
138.701922
 20
113.72352
 10
139.594245
 20
111.804682
 10
140.413332
 20
109.853454
 10
140.825891
 20
108.463082
 10
134.862864
 20
106.292717
 10
135.885504
 20
103.483037
 10
142.026339
 20
105.558491
 10
142.324019
 20
104.66539
 10
142.714483
 20
103.426998
 10
143.307173
 20
101.395527
 10
143.822598
 20
99.343083
 10
144.103644
 20
98.075372
 10
144.254709
 20
96.637013
 10
138.00907
 20
95.535738
 10
138.528278
 20
92.591163
 10
144.946179
 20
93.570498
 10
145.179208
 20
91.821725
 10
145.348692
 20
90.534344
 10
145.548645
 20
88.427643
 10
145.668706
 20
86.314886
 10
145.725345
 20
85.017631
 10
145.58976
 20
84.396843
 10
139.254753
 20
84.396843
 10
139.254753
 20
81.406843
 10
145.58976
 20
81.406843
 10
145.725345
 20
80.786054
 10
145.668707
 20
79.4888
 10
145.548645
 20
77.376043
 10
145.348692
 20
75.269342
 10
145.179208
 20
73.981961
 10
144.777827
 20
72.110559
 10
138.528278
 20
73.212523
 10
138.00907
 20
70.267948
 10
144.370967
 20
68.993859
 10
144.103644
 20
67.728314
 10
143.822598
 20
66.460602
 10
143.307173
 20
64.408159
 10
142.714483
 20
62.376688
 10
142.324019
 20
61.138296
 10
141.839251
 20
60.153662
 10
135.885504
 20
62.320649
 10
134.862864
 20
59.510968
 10
140.910244
 20
57.149881
 10
140.413332
 20
55.950232
 10
139.594245
 20
53.999004
 10
138.701922
 20
52.080165
 10
137.73766
 20
50.196467
 10
136.879812
 20
48.883348
 10
131.390177
 20
52.052791
 10
129.895177
 20
49.463375
 10
135.428504
 20
46.095502
 10
134.999208
 20
45.393461
 10
134.301532
 20
44.298325
 10
133.130012
 20
42.536019
 10
131.892686
 20
40.81931
 10
131.102213
 20
39.789148
 10
130.02671
 20
38.653726
 10
125.171242
 20
42.727948
 10
123.249307
 20
40.437475
 10
128.120534
 20
36.154219
 10
127.013203
 20
34.936824
 10
126.135956
 20
33.979476
 10
124.653829
 20
32.469025
 10
123.115595
 20
31.015741
 10
122.158244
 20
30.138494
 10
121.507096
 20
29.764576
 10
117.431948
 20
34.621149
 10
115.141475
 20
32.699214
 10
119.218183
 20
27.840783
 10
118.922379
 20
27.411684
 10
117.892215
 20
26.621213
 10
116.19924
 20
25.351584
 10
114.459413
 20
24.146926
 10
112.67526
 20
23.008976
 10
111.574911
 20
22.486903
 10
108.403597
 20
27.97978
 10
105.814181
 20
26.48478
 10
108.924771
 20
20.79708
 10
107.889051
 20
20.241908
 10
106.737278
 20
19.642332
 10
104.83569
 20
18.713869
 10
102.900301
 20
17.858027
 10
101.700654
 20
17.361116
 10
100.525642
 20
17.054028
 10
98.356969
 20
23.012407
 10
95.547288
 20
21.989766
 10
97.627219
 20
15.836633
 10
96.501325
 20
15.48164
 10
94.481416
 20
14.850606
 10
92.439122
 20
14.296462
 10
90.377277
 20
13.819991
 10
88.704026
 20
13.610625
 10
87.603048
 20
19.854579
 10
84.658473
 20
19.335371
 10
85.635957
 20
12.927969
 10
84.939228
 20
12.821669
 10
83.651857
 20
12.652182
 10
81.549298
 20
12.412405
 10
79.4392
 20
12.252362
 10
78.141938
 20
12.195722
 10
76.463051
 20
12.282325
 10
76.463051
 20
18.617543
 10
73.473052
 20
18.617543
 10
73.323052
 20
12.137911
 10
71.79646
 20
12.195721
 10
70.499205
 20
12.252362
 10
68.389107
 20
12.412405
 10
66.286574
 20
12.652182
 10
64.999196
 20
12.821669
 10
64.177578
 20
13.096664
 10
65.277709
 20
19.335816
 10
62.333133
 20
19.855024
 10
60.828838
 20
13.538944
 10
59.561127
 20
13.819991
 10
57.499309
 20
14.296462
 10
55.456989
 20
14.850606
 10
53.437106
 20
15.48164
 10
52.217591
 20
16.024378
 10
54.389093
 20
21.990531
 10
51.579412
 20
23.013171
 10
49.220377
 20
16.970347
 10
48.237744
 20
17.361116
 10
47.038097
 20
17.858027
 10
45.102708
 20
18.713869
 10
43.201118
 20
19.642332
 10
42.049344
 20
20.241908
 10
40.954224
 20
20.998165
 10
44.135427
 20
26.508171
 10
41.546011
 20
28.003171
 10
38.159663
 20
22.437843
 10
37.263165
 20
23.008977
 10
35.478985
 20
24.146926
 10
33.739184
 20
25.351584
 10
32.046207
 20
26.621213
 10
31.016043
 20
27.411683
 10
30.718857
 20
27.8419
 10
34.798037
 20
32.703277
 10
32.507564
 20
34.625212
 10
28.222197
 20
29.751469
 10
27.78018
 20
30.138494
 10
26.822836
 20
31.015741
 10
25.284602
 20
32.469025
 10
23.802472
 20
33.979476
 10
22.925225
 20
34.936824
 10
21.831163
 20
36.363115
 10
26.686929
 20
40.437587
 10
24.764994
 20
42.728059
 10
19.703678
 20
38.676922
 10
18.83622
 20
39.789148
 10
18.045747
 20
40.819309
 10
16.808392
 20
42.536019
 10
15.636872
 20
44.298325
 10
14.939197
 20
45.393461
 10
14.559441
 20
46.298638
 10
20.046388
 20
49.466529
 10
18.551389
 20
52.055944
 10
12.800341
 20
49.044693
 10
12.200768
 20
50.196467
 10
11.236483
 20
52.080165
 10
10.34416
 20
53.999004
 10
9.525096
 20
55.950232
 10
9.112252
 20
57.341346
 10
15.076398
 20
59.512118
 10
14.053758
 20
62.321799
 10
7.911819
 20
60.245943
 10
7.614374
 20
61.138296
 10
7.223917
 20
62.376688
 10
6.631231
 20
64.408159
 10
6.115835
 20
66.460602
 10
5.834789
 20
67.728314
 10
5.683641
 20
69.167069
 10
11.925523
 20
70.267681
 10
11.406314
 20
73.212256
 10
4.992192
 20
72.233588
 10
4.759197
 20
73.981961
 10
4.589707
 20
75.269342
 10
4.389777
 20
77.376043
 10
4.300577
 20
79.29011
 10
4.33942
 20
81.406843
 10
10.679644
 20
81.406843
 10
10.679644
 20
84.396843
  0
LWPOLYLINE
  5
35
100
AcDbEntity
  8
L1
  6
BYBLOCK
100
AcDbPolyline
 90
      217
 70
     1
 43
0.0
 10
29.972388
 20
81.256843
 10
30.116888
 20
81.406843
 10
36.415196
 20
81.406843
 10
36.415196
 20
84.396843
 10
29.972388
 20
84.546843
 10
30.148027
 20
87.164987
 10
30.224897
 20
88.278582
 10
30.525588
 20
89.202456
 10
36.772294
 20
88.100994
 10
37.291502
 20
91.045569
 10
30.896423
 20
92.325508
 10
31.045851
 20
92.999522
 10
31.868138
 20
96.068403
 10
32.262652
 20
96.817795
 10
38.240123
 20
94.642174
 10
39.262764
 20
97.451855
 10
33.200795
 20
99.817857
 10
33.465065
 20
100.455867
 10
34.807775
 20
103.335333
 10
35.326338
 20
104.004669
 10
40.836774
 20
100.823217
 10
42.331774
 20
103.412633
 10
36.771145
 20
106.796268
 10
37.142284
 20
107.378843
 10
38.964625
 20
109.981404
 10
39.591439
 20
110.550392
 10
44.464314
 20
106.461564
 10
46.38625
 20
108.752037
 10
41.499046
 20
113.048699
 10
41.965824
 20
113.558096
 10
44.21241
 20
115.804673
 10
44.928394
 20
116.256077
 10
49.013469
 20
111.387675
 10
51.303942
 20
113.30961
 10
47.240846
 20
118.385177
 10
47.78911
 20
118.805875
 10
50.391654
 20
120.628208
 10
51.175057
 20
120.948364
 10
54.350833
 20
115.447758
 10
56.940249
 20
116.942758
 10
53.822082
 20
122.643583
 10
54.435161
 20
122.962731
 10
57.314648
 20
124.305444
 10
58.14165
 20
124.484661
 10
60.31526
 20
118.512715
 10
63.124941
 20
119.535355
 10
61.042828
 20
125.694486
 10
61.7021
 20
125.902353
 10
64.771
 20
126.724656
 10
65.6165
 20
126.75753
 10
66.721082
 20
120.493131
 10
69.665657
 20
121.01234
 10
68.683686
 20
127.445193
 10
69.36909
 20
127.535428
 10
72.534115
 20
127.812333
 10
73.372503
 20
127.697888
 10
73.372503
 20
121.334989
 10
76.362503
 20
121.33499
 10
76.512503
 20
127.842489
 10
77.203186
 20
127.812333
 10
80.368238
 20
127.535428
 10
81.174003
 20
127.27714
 10
80.069413
 20
121.012699
 10
83.013988
 20
120.493491
 10
84.291408
 20
126.874283
 10
84.966328
 20
126.724656
 10
88.035202
 20
125.902353
 10
88.783947
 20
125.508046
 10
86.610329
 20
119.536078
 10
89.42001
 20
118.513438
 10
91.784037
 20
124.569979
 10
92.422685
 20
124.305444
 10
95.302146
 20
122.962731
 10
95.971109
 20
122.444361
 10
92.795333
 20
116.943756
 10
95.384749
 20
115.448756
 10
98.762727
 20
120.999585
 10
99.345674
 20
120.628208
 10
101.948219
 20
118.805875
 10
102.517094
 20
118.179149
 10
98.432027
 20
113.310757
 10
100.7225
 20
111.388822
 10
105.015399
 20
116.271541
 10
105.524898
 20
115.804673
 10
107.771484
 20
113.558096
 10
108.222987
 20
112.842001
 10
103.350123
 20
108.753183
 10
105.272058
 20
106.46271
 10
110.35208
 20
110.529543
 10
110.772684
 20
109.981404
 10
112.595024
 20
107.378843
 10
112.915404
 20
106.595086
 10
107.404962
 20
103.413631
 10
108.899962
 20
100.824215
 10
114.610579
 20
103.948036
 10
114.929527
 20
103.335333
 10
116.272264
 20
100.455867
 10
116.451747
 20
99.628216
 10
110.474269
 20
97.452592
 10
111.496909
 20
94.642911
 10
117.6615
 20
96.727012
 10
117.869167
 20
96.068403
 10
118.691481
 20
92.999522
 10
118.724559
 20
92.153088
 10
112.465831
 20
91.049506
 10
112.985039
 20
88.10493
 10
119.412111
 20
89.085883
 10
119.502222
 20
88.401414
 10
119.779138
 20
85.236364
 10
119.664745
 20
84.396843
 10
113.313168
 20
84.396843
 10
113.313168
 20
81.406843
 10
119.809245
 20
81.256843
 10
119.779138
 20
80.567323
 10
119.502221
 20
77.402273
 10
119.243759
 20
76.595175
 10
112.985039
 20
77.698756
 10
112.465831
 20
74.754181
 10
118.840816
 20
73.477785
 10
118.691481
 20
72.804165
 10
117.869168
 20
69.735283
 10
117.474412
 20
68.985143
 10
111.496909
 20
71.160776
 10
110.474269
 20
68.351095
 10
116.536229
 20
65.985095
 10
116.272264
 20
65.34782
 10
114.929527
 20
62.468353
 10
114.410438
 20
61.797997
 10
108.899962
 20
64.979472
 10
107.404962
 20
62.390056
 10
112.965544
 20
59.006447
 10
112.595024
 20
58.424844
 10
110.772684
 20
55.822282
 10
110.144968
 20
55.252119
 10
105.272058
 20
59.340976
 10
103.350123
 20
57.050503
 10
108.237262
 20
52.753896
 10
107.771484
 20
52.24559
 10
105.524898
 20
49.999014
 10
104.80761
 20
49.546421
 10
100.7225
 20
54.414865
 10
98.432027
 20
52.49293
 10
102.49507
 20
47.417426
 10
101.948219
 20
46.997811
 10
99.345674
 20
45.175479
 10
98.560574
 20
44.854242
 10
95.384749
 20
50.354931
 10
92.795333
 20
48.859931
 10
95.913455
 20
43.159185
 10
95.302146
 20
42.840956
 10
92.422685
 20
41.498243
 10
91.593661
 20
41.31819
 10
89.42001
 20
47.290249
 10
86.610329
 20
46.267609
 10
88.692415
 20
40.108552
 10
88.035202
 20
39.901334
 10
84.966328
 20
39.07903
 10
84.118594
 20
39.045661
 10
83.013988
 20
45.310196
 10
80.069413
 20
44.790987
 10
81.051374
 20
38.358195
 10
80.368238
 20
38.268258
 10
77.203186
 20
37.991354
 10
76.362503
 20
38.105698
 10
76.362503
 20
44.468697
 10
73.372503
 20
44.468697
 10
73.222504
 20
37.961298
 10
72.534115
 20
37.991354
 10
69.36909
 20
38.268258
 10
68.561057
 20
38.526845
 10
69.665657
 20
44.791347
 10
66.721082
 20
45.310555
 10
65.443686
 20
38.929899
 10
64.771
 20
39.07903
 10
61.7021
 20
39.901334
 10
60.951296
 20
40.29629
 10
63.124941
 20
46.268331
 10
60.31526
 20
47.290972
 10
57.951274
 20
41.234543
 10
57.314648
 20
41.498243
 10
54.435161
 20
42.840956
 10
53.764428
 20
43.360244
 10
56.940249
 20
48.860929
 10
54.350833
 20
50.355928
 10
50.972903
 20
44.805182
 10
50.391654
 20
45.175479
 10
47.78911
 20
46.997811
 10
47.218822
 20
47.625621
 10
51.303942
 20
52.494077
 10
49.013469
 20
54.416012
 10
44.720605
 20
49.533334
 10
44.21241
 20
49.999014
 10
41.965824
 20
52.24559
 10
41.513321
 20
52.962777
 10
46.386249
 20
57.05165
 10
44.464315
 20
59.342123
 10
39.384327
 20
55.275318
 10
38.964625
 20
55.822282
 10
37.142284
 20
58.424844
 10
36.821285
 20
59.209572
 10
42.331774
 20
62.391054
 10
40.836774
 20
64.98047
 10
35.126197
 20
61.856672
 10
34.807775
 20
62.468353
 10
33.465065
 20
65.34782
 10
33.285278
 20
66.176205
 10
39.262764
 20
68.351832
 10
38.240123
 20
71.161513
 10
32.075563
 20
69.077423
 10
31.868138
 20
69.735283
 10
31.045851
 20
72.804165
 10
31.012681
 20
73.650992
 10
37.291503
 20
74.758118
 10
36.772294
 20
77.702693
 10
30.357237
 20
76.723859
 10
30.190765
 20
77.800076
 10
30.148027
 20
78.638699
  0
CIRCLE
  5
36
100
AcDbEntity
  8
0
  6
BYBLOCK
100
AcDbCircle
 10
74.867503
 20
82.901843
 30
0.0
 40
14.5
  0
LWPOLYLINE
  5
37
100
AcDbEntity
  8
C1
  6
BYBLOCK
100
AcDbPolyline
 90
      144
 70
     1
 43
0.0
 10
104.753192
 20
314.111705
 10
90.548798
 20
312.040744
 10
81.177068
 20
310.89068
 10
81.178023
 20
310.897279
 10
72.346286
 20
310.02728
 10
54.542409
 20
308.538909
 10
38.307998
 20
307.666548
 10
24.02246
 20
307.358081
 10
9.70898
 20
307.533131
 10
7.842406
 20
294.643237
 10
22.155885
 20
294.468188
 10
36.441423
 20
294.776654
 10
52.675834
 20
295.649015
 10
70.479712
 20
297.137386
 10
76.092783
 20
297.69032
 10
77.226175
 20
304.470466
 10
80.18531
 20
304.041956
 10
79.311449
 20
298.007385
 10
79.579196
 20
298.033761
 10
88.682223
 20
299.15085
 10
102.886617
 20
301.221812
 10
116.042704
 20
303.644453
 10
127.184871
 20
305.811812
 10
130.911247
 20
306.598831
 10
138.355924
 20
307.990198
 10
142.193631
 20
308.624716
 10
146.046596
 20
309.263308
 10
149.902773
 20
309.814497
 10
153.157149
 20
310.168798
 10
153.810832
 20
310.25672
 10
154.787134
 20
310.373823
 10
155.772424
 20
310.469648
 10
156.426522
 20
310.523491
 10
159.712312
 20
310.878007
 10
163.121227
 20
311.06765
 10
163.805706
 20
311.122821
 10
164.828658
 20
311.190775
 10
165.860461
 20
311.235793
 10
166.545881
 20
311.255758
 10
169.985993
 20
311.446074
 10
173.600451
 20
311.493295
 10
174.32104
 20
311.484579
 10
175.406843
 20
311.471443
 10
180.85838
 20
311.501598
 10
184.712068
 20
311.337437
 10
185.486545
 20
311.323359
 10
186.643515
 20
311.255837
 10
187.805774
 20
311.226079
 10
188.577556
 20
311.175211
 10
192.455232
 20
311.018559
 10
196.610652
 20
310.660708
 10
197.444911
 20
310.608406
 10
198.692543
 20
310.482755
 10
199.944237
 20
310.395763
 10
200.776332
 20
310.306217
 10
204.951414
 20
309.959275
 10
209.505595
 20
309.387915
 10
210.419483
 20
309.293294
 10
211.785405
 20
309.103833
 10
213.155623
 20
308.953638
 10
214.065972
 20
308.821769
 10
218.631435
 20
308.265778
 10
223.764872
 20
307.477042
 10
226.616082
 20
307.042481
 10
227.613104
 20
306.878046
 10
228.898053
 20
306.692887
 10
234.016304
 20
305.81905
 10
239.247398
 20
304.7994
 10
240.29643
 20
304.614517
 10
241.861747
 20
304.290393
 10
243.432412
 20
304.004109
 10
244.474188
 20
303.782081
 10
249.695447
 20
302.766825
 10
254.892276
 20
301.596872
 10
255.929276
 20
301.34431
 10
257.481389
 20
300.966293
 10
260.081087
 20
300.429009
 10
265.246323
 20
299.170845
 10
270.348786
 20
297.793938
 10
275.458541
 20
296.493235
 10
281.869713
 20
294.643237
 10
282.91896
 20
300.842313
 10
285.878095
 20
300.413804
 10
286.78178
 20
306.654328
 10
283.736287
 20
307.533131
 10
277.325115
 20
309.383129
 10
272.215361
 20
310.683832
 10
267.112897
 20
312.060738
 10
261.947662
 20
313.318903
 10
259.347963
 20
313.856187
 10
257.79585
 20
314.234204
 10
256.75885
 20
314.486766
 10
251.562022
 20
315.656719
 10
246.340762
 20
316.671975
 10
245.298986
 20
316.894002
 10
243.728321
 20
317.180286
 10
242.163004
 20
317.504411
 10
241.113973
 20
317.689293
 10
235.882879
 20
318.708944
 10
230.764628
 20
319.582781
 10
229.479678
 20
319.767939
 10
228.482656
 20
319.932374
 10
225.631447
 20
320.366935
 10
220.498009
 20
321.155671
 10
215.932547
 20
321.711663
 10
215.022197
 20
321.843532
 10
213.65198
 20
321.993726
 10
212.286057
 20
322.183188
 10
211.37217
 20
322.277809
 10
206.817988
 20
322.849169
 10
202.642906
 20
323.196111
 10
201.810811
 20
323.285656
 10
200.559117
 20
323.372649
 10
199.311486
 20
323.498299
 10
198.477227
 20
323.550602
 10
194.321806
 20
323.908453
 10
190.44413
 20
324.065104
 10
189.672349
 20
324.115973
 10
188.51009
 20
324.145731
 10
187.353119
 20
324.213253
 10
186.578642
 20
324.227331
 10
182.724954
 20
324.391492
 10
177.273417
 20
324.361337
 10
176.187614
 20
324.374472
 10
175.467025
 20
324.383189
 10
171.852567
 20
324.335968
 10
168.412455
 20
324.145652
 10
167.727035
 20
324.125687
 10
166.695232
 20
324.080669
 10
165.67228
 20
324.012715
 10
164.987801
 20
323.957544
 10
161.578886
 20
323.767901
 10
158.293097
 20
323.413385
 10
157.638998
 20
323.359541
 10
156.653708
 20
323.263716
 10
155.677406
 20
323.146614
 10
155.023723
 20
323.058692
 10
151.769348
 20
322.704391
 10
147.91317
 20
322.153202
 10
144.060205
 20
321.51461
 10
140.222498
 20
320.880092
 10
132.777821
 20
319.488725
 10
129.051446
 20
318.701706
 10
117.909278
 20
316.534346
  0
LWPOLYLINE
  5
38
100
AcDbEntity
  8
E1
  6
BYBLOCK
100
AcDbPolyline
 90
        4
 70
     1
 43
0.0
 10
138.237845
 20
220.139537
 10
131.365258
 20
220.289537
 10
132.140331
 20
217.149537
 10
138.237845
 20
217.149537
  0
LWPOLYLINE
  5
39
100
AcDbEntity
  8
E1
  6
BYBLOCK
100
AcDbPolyline
 90
        4
 70
     1
 43
0.0
 10
151.262186
 20
220.139537
 10
144.389599
 20
220.289537
 10
145.164672
 20
217.149537
 10
151.262186
 20
217.149537
  0
LWPOLYLINE
  5
3A
100
AcDbEntity
  8
E1
  6
BYBLOCK
100
AcDbPolyline
 90
        4
 70
     1
 43
0.0
 10
164.286527
 20
220.139537
 10
157.41394
 20
220.289537
 10
158.189013
 20
217.149537
 10
164.286527
 20
217.149537
  0
LWPOLYLINE
  5
3B
100
AcDbEntity
  8
E1
  6
BYBLOCK
100
AcDbPolyline
 90
        4
 70
     1
 43
0.0
 10
177.310868
 20
220.139537
 10
170.438281
 20
220.289537
 10
171.213354
 20
217.149537
 10
177.310868
 20
217.149537
  0
LWPOLYLINE
  5
3C
100
AcDbEntity
  8
E1
  6
BYBLOCK
100
AcDbPolyline
 90
        4
 70
     1
 43
0.0
 10
190.335209
 20
220.139537
 10
183.462622
 20
220.289537
 10
184.237695
 20
217.149537
 10
190.335209
 20
217.149537
  0
LWPOLYLINE
  5
3D
100
AcDbEntity
  8
E1
  6
BYBLOCK
100
AcDbPolyline
 90
        4
 70
     1
 43
0.0
 10
203.35955
 20
220.139537
 10
196.486963
 20
220.289537
 10
197.262037
 20
217.149537
 10
203.35955
 20
217.149537
  0
LWPOLYLINE
  5
3E
100
AcDbEntity
  8
E1
  6
BYBLOCK
100
AcDbPolyline
 90
        4
 70
     1
 43
0.0
 10
255.456915
 20
220.139537
 10
248.584328
 20
220.289537
 10
249.359401
 20
217.149537
 10
255.456915
 20
217.149537
  0
LWPOLYLINE
  5
3F
100
AcDbEntity
  8
E1
  6
BYBLOCK
100
AcDbPolyline
 90
        4
 70
     1
 43
0.0
 10
229.408233
 20
220.139537
 10
222.535646
 20
220.289537
 10
223.310719
 20
217.149537
 10
229.408233
 20
217.149537
  0
LWPOLYLINE
  5
40
100
AcDbEntity
  8
E1
  6
BYBLOCK
100
AcDbPolyline
 90
        4
 70
     1
 43
0.0
 10
216.383892
 20
220.139537
 10
209.511305
 20
220.289537
 10
210.286378
 20
217.149537
 10
216.383892
 20
217.149537
  0
LWPOLYLINE
  5
41
100
AcDbEntity
  8
E1
  6
BYBLOCK
100
AcDbPolyline
 90
        4
 70
     1
 43
0.0
 10
242.432574
 20
220.139537
 10
235.559987
 20
220.289537
 10
236.33506
 20
217.149537
 10
242.432574
 20
217.149537
  0
LWPOLYLINE
  5
42
100
AcDbEntity
  8
E1
  6
BYBLOCK
100
AcDbPolyline
 90
        4
 70
     1
 43
0.0
 10
268.481256
 20
220.139537
 10
261.608669
 20
220.289537
 10
262.383742
 20
217.149537
 10
268.481256
 20
217.149537
  0
LWPOLYLINE
  5
43
100
AcDbEntity
  8
E1
  6
BYBLOCK
100
AcDbPolyline
 90
        4
 70
     1
 43
0.0
 10
281.505597
 20
220.139537
 10
274.63301
 20
220.289537
 10
275.408083
 20
217.149537
 10
281.505597
 20
217.149537
  0
LWPOLYLINE
  5
44
100
AcDbEntity
  8
E1
  6
BYBLOCK
100
AcDbPolyline
 90
        4
 70
     1
 43
0.0
 10
294.529938
 20
220.139537
 10
287.657351
 20
220.289537
 10
288.432425
 20
217.149537
 10
294.529938
 20
217.149537
  0
LWPOLYLINE
  5
45
100
AcDbEntity
  8
L1
  6
BYBLOCK
100
AcDbPolyline
 90
       68
 70
     0
 43
0.0
 10
574.619321
 20
16.200106
 10
575.53141
 20
22.810228
 10
576.086385
 20
28.053645
 10
576.717822
 20
33.300767
 10
577.222747
 20
38.592996
 10
577.38191
 20
41.242859
 10
577.533585
 20
42.833125
 10
577.634923
 20
43.895616
 10
578.048019
 20
49.20647
 10
578.304514
 20
54.519332
 10
578.374948
 20
55.582174
 10
578.433178
 20
57.177654
 10
578.529624
 20
58.773264
 10
578.562257
 20
59.837963
 10
578.821691
 20
65.161188
 10
578.952989
 20
70.351838
 10
578.952085
 20
71.650059
 10
578.971935
 20
72.660355
 10
578.993391
 20
75.544411
 10
579.03829
 20
80.737894
 10
578.934246
 20
85.33591
 10
578.934288
 20
86.255761
 10
578.88656
 20
87.633359
 10
578.87831
 20
89.012334
 10
578.840981
 20
89.930348
 10
578.753763
 20
94.519402
 10
578.498775
 20
98.701107
 10
578.468145
 20
99.537446
 10
578.374854
 20
100.788686
 10
578.320404
 20
102.041446
 10
578.252605
 20
102.874589
 10
578.011231
 20
107.038399
 10
577.610539
 20
110.898497
 10
577.550275
 20
111.669602
 10
577.413158
 20
112.824128
 10
577.314172
 20
113.978832
 10
577.217111
 20
114.747332
 10
576.827289
 20
118.584766
 10
576.016162
 20
123.975706
 10
575.873551
 20
125.052183
 10
575.778907
 20
125.766583
 10
575.21417
 20
129.336962
 10
574.532801
 20
132.714288
 10
574.414812
 20
133.389771
 10
574.222386
 20
134.404471
 10
574.00853
 20
135.407125
 10
573.855833
 20
136.076631
 10
573.179601
 20
139.423178
 10
572.357844
 20
142.624242
 10
572.210815
 20
143.263872
 10
571.974773
 20
144.225258
 10
571.718961
 20
145.174699
 10
571.538265
 20
145.809034
 10
570.721223
 20
148.979039
 10
569.623078
 20
152.716417
 10
568.438893
 20
156.438089
 10
567.260927
 20
160.145245
 10
564.816994
 20
167.313669
 10
563.504056
 20
170.888787
 10
559.762238
 20
181.605323
 10
555.47915
 20
194.278403
 10
551.393874
 20
208.03937
 10
548.983722
 20
216.888334
 10
546.792514
 20
225.765423
 10
542.767957
 20
243.17221
 10
539.577978
 20
259.114015
 10
537.225374
 20
273.207879
 10
535.34729
 20
287.398691
  0
LWPOLYLINE
  5
46
100
AcDbEntity
  8
L1
  6
BYBLOCK
100
AcDbPolyline
 90
       68
 70
     0
 43
0.0
 10
561.59498
 20
16.200106
 10
562.507069
 20
22.810228
 10
563.062044
 20
28.053645
 10
563.693481
 20
33.300767
 10
564.198406
 20
38.592996
 10
564.357569
 20
41.242859
 10
564.509244
 20
42.833125
 10
564.610582
 20
43.895616
 10
565.023678
 20
49.20647
 10
565.280173
 20
54.519332
 10
565.350607
 20
55.582174
 10
565.408837
 20
57.177654
 10
565.505283
 20
58.773264
 10
565.537916
 20
59.837963
 10
565.79735
 20
65.161188
 10
565.928648
 20
70.351838
 10
565.927744
 20
71.650059
 10
565.947594
 20
72.660355
 10
565.96905
 20
75.544411
 10
566.013949
 20
80.737894
 10
565.909905
 20
85.33591
 10
565.909947
 20
86.255761
 10
565.862219
 20
87.633359
 10
565.853969
 20
89.012334
 10
565.81664
 20
89.930348
 10
565.729422
 20
94.519402
 10
565.474434
 20
98.701107
 10
565.443804
 20
99.537446
 10
565.350513
 20
100.788686
 10
565.296063
 20
102.041446
 10
565.228264
 20
102.874589
 10
564.98689
 20
107.038399
 10
564.586198
 20
110.898497
 10
564.525934
 20
111.669602
 10
564.388817
 20
112.824128
 10
564.289831
 20
113.978832
 10
564.19277
 20
114.747332
 10
563.802948
 20
118.584766
 10
562.991821
 20
123.975706
 10
562.84921
 20
125.052183
 10
562.754566
 20
125.766583
 10
562.189829
 20
129.336962
 10
561.50846
 20
132.714288
 10
561.390471
 20
133.389771
 10
561.198045
 20
134.404471
 10
560.984189
 20
135.407125
 10
560.831492
 20
136.076631
 10
560.15526
 20
139.423178
 10
559.333503
 20
142.624242
 10
559.186474
 20
143.263872
 10
558.950432
 20
144.225258
 10
558.69462
 20
145.174699
 10
558.513924
 20
145.809034
 10
557.696882
 20
148.979039
 10
556.598737
 20
152.716417
 10
555.414552
 20
156.438089
 10
554.236586
 20
160.145245
 10
551.792653
 20
167.313669
 10
550.479715
 20
170.888787
 10
546.737897
 20
181.605323
 10
542.454809
 20
194.278403
 10
538.369533
 20
208.03937
 10
535.959381
 20
216.888334
 10
533.768173
 20
225.765423
 10
529.743616
 20
243.17221
 10
526.553637
 20
259.114015
 10
524.201033
 20
273.207879
 10
522.322949
 20
287.398691
  0
LWPOLYLINE
  5
47
100
AcDbEntity
  8
L1
  6
BYBLOCK
100
AcDbPolyline
 90
       68
 70
     0
 43
0.0
 10
548.570639
 20
16.200106
 10
549.482728
 20
22.810228
 10
550.037703
 20
28.053645
 10
550.66914
 20
33.300767
 10
551.174065
 20
38.592996
 10
551.333228
 20
41.242859
 10
551.484903
 20
42.833125
 10
551.586241
 20
43.895616
 10
551.999337
 20
49.20647
 10
552.255832
 20
54.519332
 10
552.326266
 20
55.582174
 10
552.384496
 20
57.177654
 10
552.480942
 20
58.773264
 10
552.513575
 20
59.837963
 10
552.773009
 20
65.161188
 10
552.904307
 20
70.351838
 10
552.903403
 20
71.650059
 10
552.923253
 20
72.660355
 10
552.944709
 20
75.544411
 10
552.989608
 20
80.737894
 10
552.885564
 20
85.33591
 10
552.885606
 20
86.255761
 10
552.837878
 20
87.633359
 10
552.829628
 20
89.012334
 10
552.792299
 20
89.930348
 10
552.705081
 20
94.519402
 10
552.450093
 20
98.701107
 10
552.419463
 20
99.537446
 10
552.326172
 20
100.788686
 10
552.271722
 20
102.041446
 10
552.203923
 20
102.874589
 10
551.962549
 20
107.038399
 10
551.561857
 20
110.898497
 10
551.501593
 20
111.669602
 10
551.364476
 20
112.824128
 10
551.26549
 20
113.978832
 10
551.168429
 20
114.747332
 10
550.778607
 20
118.584766
 10
549.96748
 20
123.975706
 10
549.824869
 20
125.052183
 10
549.730225
 20
125.766583
 10
549.165488
 20
129.336962
 10
548.484119
 20
132.714288
 10
548.36613
 20
133.389771
 10
548.173704
 20
134.404471
 10
547.959848
 20
135.407125
 10
547.807151
 20
136.076631
 10
547.130919
 20
139.423178
 10
546.309162
 20
142.624242
 10
546.162133
 20
143.263872
 10
545.926091
 20
144.225258
 10
545.670279
 20
145.174699
 10
545.489583
 20
145.809034
 10
544.672541
 20
148.979039
 10
543.574396
 20
152.716417
 10
542.390211
 20
156.438089
 10
541.212245
 20
160.145245
 10
538.768312
 20
167.313669
 10
537.455374
 20
170.888787
 10
533.713556
 20
181.605323
 10
529.430468
 20
194.278403
 10
525.345192
 20
208.03937
 10
522.93504
 20
216.888334
 10
520.743832
 20
225.765423
 10
516.719275
 20
243.17221
 10
513.529296
 20
259.114015
 10
511.176692
 20
273.207879
 10
509.298608
 20
287.398691
  0
LWPOLYLINE
  5
48
100
AcDbEntity
  8
L1
  6
BYBLOCK
100
AcDbPolyline
 90
       68
 70
     0
 43
0.0
 10
535.546298
 20
16.200106
 10
536.458387
 20
22.810228
 10
537.013362
 20
28.053645
 10
537.644799
 20
33.300767
 10
538.149724
 20
38.592996
 10
538.308887
 20
41.242859
 10
538.460562
 20
42.833125
 10
538.5619
 20
43.895616
 10
538.974996
 20
49.20647
 10
539.231491
 20
54.519332
 10
539.301925
 20
55.582174
 10
539.360155
 20
57.177654
 10
539.456601
 20
58.773264
 10
539.489234
 20
59.837963
 10
539.748668
 20
65.161188
 10
539.879966
 20
70.351838
 10
539.879062
 20
71.650059
 10
539.898912
 20
72.660355
 10
539.920368
 20
75.544411
 10
539.965267
 20
80.737894
 10
539.861223
 20
85.33591
 10
539.861265
 20
86.255761
 10
539.813537
 20
87.633359
 10
539.805287
 20
89.012334
 10
539.767958
 20
89.930348
 10
539.68074
 20
94.519402
 10
539.425752
 20
98.701107
 10
539.395122
 20
99.537446
 10
539.301831
 20
100.788686
 10
539.247381
 20
102.041446
 10
539.179582
 20
102.874589
 10
538.938208
 20
107.038399
 10
538.537516
 20
110.898497
 10
538.477252
 20
111.669602
 10
538.340135
 20
112.824128
 10
538.241149
 20
113.978832
 10
538.144088
 20
114.747332
 10
537.754266
 20
118.584766
 10
536.943139
 20
123.975706
 10
536.800528
 20
125.052183
 10
536.705884
 20
125.766583
 10
536.141147
 20
129.336962
 10
535.459778
 20
132.714288
 10
535.341789
 20
133.389771
 10
535.149363
 20
134.404471
 10
534.935507
 20
135.407125
 10
534.78281
 20
136.076631
 10
534.106578
 20
139.423178
 10
533.284821
 20
142.624242
 10
533.137792
 20
143.263872
 10
532.90175
 20
144.225258
 10
532.645938
 20
145.174699
 10
532.465242
 20
145.809034
 10
531.6482
 20
148.979039
 10
530.550055
 20
152.716417
 10
529.36587
 20
156.438089
 10
528.187904
 20
160.145245
 10
525.743971
 20
167.313669
 10
524.431033
 20
170.888787
 10
520.689215
 20
181.605323
 10
516.406127
 20
194.278403
 10
512.320851
 20
208.03937
 10
509.910699
 20
216.888334
 10
507.719491
 20
225.765423
 10
503.694934
 20
243.17221
 10
500.504955
 20
259.114015
 10
498.152351
 20
273.207879
 10
496.274267
 20
287.398691
  0
LWPOLYLINE
  5
49
100
AcDbEntity
  8
L1
  6
BYBLOCK
100
AcDbPolyline
 90
       68
 70
     0
 43
0.0
 10
522.521957
 20
16.200106
 10
523.434046
 20
22.810228
 10
523.989021
 20
28.053645
 10
524.620458
 20
33.300767
 10
525.125383
 20
38.592996
 10
525.284546
 20
41.242859
 10
525.436221
 20
42.833125
 10
525.537559
 20
43.895616
 10
525.950655
 20
49.20647
 10
526.20715
 20
54.519332
 10
526.277584
 20
55.582174
 10
526.335814
 20
57.177654
 10
526.43226
 20
58.773264
 10
526.464893
 20
59.837963
 10
526.724327
 20
65.161188
 10
526.855625
 20
70.351838
 10
526.854721
 20
71.650059
 10
526.874571
 20
72.660355
 10
526.896027
 20
75.544411
 10
526.940926
 20
80.737894
 10
526.836882
 20
85.33591
 10
526.836924
 20
86.255761
 10
526.789196
 20
87.633359
 10
526.780946
 20
89.012334
 10
526.743617
 20
89.930348
 10
526.656399
 20
94.519402
 10
526.401411
 20
98.701107
 10
526.370781
 20
99.537446
 10
526.27749
 20
100.788686
 10
526.22304
 20
102.041446
 10
526.155241
 20
102.874589
 10
525.913867
 20
107.038399
 10
525.513175
 20
110.898497
 10
525.452911
 20
111.669602
 10
525.315794
 20
112.824128
 10
525.216808
 20
113.978832
 10
525.119747
 20
114.747332
 10
524.729925
 20
118.584766
 10
523.918798
 20
123.975706
 10
523.776187
 20
125.052183
 10
523.681543
 20
125.766583
 10
523.116806
 20
129.336962
 10
522.435437
 20
132.714288
 10
522.317448
 20
133.389771
 10
522.125022
 20
134.404471
 10
521.911166
 20
135.407125
 10
521.758469
 20
136.076631
 10
521.082237
 20
139.423178
 10
520.26048
 20
142.624242
 10
520.113451
 20
143.263872
 10
519.877409
 20
144.225258
 10
519.621597
 20
145.174699
 10
519.440901
 20
145.809034
 10
518.623859
 20
148.979039
 10
517.525714
 20
152.716417
 10
516.341529
 20
156.438089
 10
515.163563
 20
160.145245
 10
512.71963
 20
167.313669
 10
511.406692
 20
170.888787
 10
507.664874
 20
181.605323
 10
503.381786
 20
194.278403
 10
499.29651
 20
208.03937
 10
496.886358
 20
216.888334
 10
494.69515
 20
225.765423
 10
490.670593
 20
243.17221
 10
487.480614
 20
259.114015
 10
485.12801
 20
273.207879
 10
483.249926
 20
287.398691
  0
LWPOLYLINE
  5
4A
100
AcDbEntity
  8
L1
  6
BYBLOCK
100
AcDbPolyline
 90
       68
 70
     0
 43
0.0
 10
509.497616
 20
16.200106
 10
510.409705
 20
22.810228
 10
510.96468
 20
28.053645
 10
511.596117
 20
33.300767
 10
512.101042
 20
38.592996
 10
512.260205
 20
41.242859
 10
512.41188
 20
42.833125
 10
512.513218
 20
43.895616
 10
512.926314
 20
49.20647
 10
513.182809
 20
54.519332
 10
513.253243
 20
55.582174
 10
513.311473
 20
57.177654
 10
513.407919
 20
58.773264
 10
513.440552
 20
59.837963
 10
513.699986
 20
65.161188
 10
513.831284
 20
70.351838
 10
513.83038
 20
71.650059
 10
513.85023
 20
72.660355
 10
513.871686
 20
75.544411
 10
513.916585
 20
80.737894
 10
513.812541
 20
85.33591
 10
513.812583
 20
86.255761
 10
513.764855
 20
87.633359
 10
513.756605
 20
89.012334
 10
513.719276
 20
89.930348
 10
513.632058
 20
94.519402
 10
513.37707
 20
98.701107
 10
513.34644
 20
99.537446
 10
513.253149
 20
100.788686
 10
513.198699
 20
102.041446
 10
513.1309
 20
102.874589
 10
512.889526
 20
107.038399
 10
512.488834
 20
110.898497
 10
512.42857
 20
111.669602
 10
512.291453
 20
112.824128
 10
512.192467
 20
113.978832
 10
512.095406
 20
114.747332
 10
511.705584
 20
118.584766
 10
510.894457
 20
123.975706
 10
510.751846
 20
125.052183
 10
510.657202
 20
125.766583
 10
510.092465
 20
129.336962
 10
509.411096
 20
132.714288
 10
509.293107
 20
133.389771
 10
509.100681
 20
134.404471
 10
508.886825
 20
135.407125
 10
508.734128
 20
136.076631
 10
508.057896
 20
139.423178
 10
507.236139
 20
142.624242
 10
507.08911
 20
143.263872
 10
506.853068
 20
144.225258
 10
506.597256
 20
145.174699
 10
506.41656
 20
145.809034
 10
505.599518
 20
148.979039
 10
504.501373
 20
152.716417
 10
503.317188
 20
156.438089
 10
502.139222
 20
160.145245
 10
499.695289
 20
167.313669
 10
498.382351
 20
170.888787
 10
494.640533
 20
181.605323
 10
490.357445
 20
194.278403
 10
486.272169
 20
208.03937
 10
483.862017
 20
216.888334
 10
481.670809
 20
225.765423
 10
477.646252
 20
243.17221
 10
474.456273
 20
259.114015
 10
472.103669
 20
273.207879
 10
470.225585
 20
287.398691
  0
LWPOLYLINE
  5
4B
100
AcDbEntity
  8
L1
  6
BYBLOCK
100
AcDbPolyline
 90
       68
 70
     0
 43
0.0
 10
496.473275
 20
16.200106
 10
497.385363
 20
22.810228
 10
497.940338
 20
28.053645
 10
498.571775
 20
33.300767
 10
499.0767
 20
38.592996
 10
499.235863
 20
41.242859
 10
499.387538
 20
42.833125
 10
499.488876
 20
43.895616
 10
499.901972
 20
49.20647
 10
500.158467
 20
54.519332
 10
500.228901
 20
55.582174
 10
500.287131
 20
57.177654
 10
500.383577
 20
58.773264
 10
500.41621
 20
59.837963
 10
500.675644
 20
65.161188
 10
500.806942
 20
70.351838
 10
500.806038
 20
71.650059
 10
500.825888
 20
72.660355
 10
500.847344
 20
75.544411
 10
500.892243
 20
80.737894
 10
500.788199
 20
85.33591
 10
500.788241
 20
86.255761
 10
500.740513
 20
87.633359
 10
500.732263
 20
89.012334
 10
500.694934
 20
89.930348
 10
500.607716
 20
94.519402
 10
500.352728
 20
98.701107
 10
500.322098
 20
99.537446
 10
500.228807
 20
100.788686
 10
500.174357
 20
102.041446
 10
500.106558
 20
102.874589
 10
499.865184
 20
107.038399
 10
499.464492
 20
110.898497
 10
499.404228
 20
111.669602
 10
499.267111
 20
112.824128
 10
499.168125
 20
113.978832
 10
499.071064
 20
114.747332
 10
498.681242
 20
118.584766
 10
497.870115
 20
123.975706
 10
497.727504
 20
125.052183
 10
497.63286
 20
125.766583
 10
497.068123
 20
129.336962
 10
496.386754
 20
132.714288
 10
496.268765
 20
133.389771
 10
496.076339
 20
134.404471
 10
495.862483
 20
135.407125
 10
495.709786
 20
136.076631
 10
495.033554
 20
139.423178
 10
494.211797
 20
142.624242
 10
494.064768
 20
143.263872
 10
493.828726
 20
144.225258
 10
493.572914
 20
145.174699
 10
493.392218
 20
145.809034
 10
492.575176
 20
148.979039
 10
491.477031
 20
152.716417
 10
490.292846
 20
156.438089
 10
489.11488
 20
160.145245
 10
486.670947
 20
167.313669
 10
485.358009
 20
170.888787
 10
481.616191
 20
181.605323
 10
477.333103
 20
194.278403
 10
473.247827
 20
208.03937
 10
470.837675
 20
216.888334
 10
468.646467
 20
225.765423
 10
464.62191
 20
243.17221
 10
461.431931
 20
259.114015
 10
459.079327
 20
273.207879
 10
457.201243
 20
287.398691
  0
LWPOLYLINE
  5
4C
100
AcDbEntity
  8
L1
  6
BYBLOCK
100
AcDbPolyline
 90
       68
 70
     0
 43
0.0
 10
483.448933
 20
16.200106
 10
484.361022
 20
22.810228
 10
484.915997
 20
28.053645
 10
485.547434
 20
33.300767
 10
486.052359
 20
38.592996
 10
486.211522
 20
41.242859
 10
486.363197
 20
42.833125
 10
486.464535
 20
43.895616
 10
486.877631
 20
49.20647
 10
487.134126
 20
54.519332
 10
487.20456
 20
55.582174
 10
487.26279
 20
57.177654
 10
487.359236
 20
58.773264
 10
487.391869
 20
59.837963
 10
487.651303
 20
65.161188
 10
487.782601
 20
70.351838
 10
487.781697
 20
71.650059
 10
487.801547
 20
72.660355
 10
487.823003
 20
75.544411
 10
487.867902
 20
80.737894
 10
487.763858
 20
85.33591
 10
487.7639
 20
86.255761
 10
487.716172
 20
87.633359
 10
487.707922
 20
89.012334
 10
487.670593
 20
89.930348
 10
487.583375
 20
94.519402
 10
487.328387
 20
98.701107
 10
487.297757
 20
99.537446
 10
487.204466
 20
100.788686
 10
487.150016
 20
102.041446
 10
487.082217
 20
102.874589
 10
486.840843
 20
107.038399
 10
486.440151
 20
110.898497
 10
486.379887
 20
111.669602
 10
486.24277
 20
112.824128
 10
486.143784
 20
113.978832
 10
486.046723
 20
114.747332
 10
485.656901
 20
118.584766
 10
484.845774
 20
123.975706
 10
484.703163
 20
125.052183
 10
484.608519
 20
125.766583
 10
484.043782
 20
129.336962
 10
483.362413
 20
132.714288
 10
483.244424
 20
133.389771
 10
483.051998
 20
134.404471
 10
482.838142
 20
135.407125
 10
482.685445
 20
136.076631
 10
482.009213
 20
139.423178
 10
481.187456
 20
142.624242
 10
481.040427
 20
143.263872
 10
480.804385
 20
144.225258
 10
480.548573
 20
145.174699
 10
480.367877
 20
145.809034
 10
479.550835
 20
148.979039
 10
478.45269
 20
152.716417
 10
477.268505
 20
156.438089
 10
476.090539
 20
160.145245
 10
473.646606
 20
167.313669
 10
472.333668
 20
170.888787
 10
468.59185
 20
181.605323
 10
464.308762
 20
194.278403
 10
460.223486
 20
208.03937
 10
457.813334
 20
216.888334
 10
455.622126
 20
225.765423
 10
451.597569
 20
243.17221
 10
448.40759
 20
259.114015
 10
446.054986
 20
273.207879
 10
444.176902
 20
287.398691
  0
LWPOLYLINE
  5
4D
100
AcDbEntity
  8
L1
  6
BYBLOCK
100
AcDbPolyline
 90
       68
 70
     0
 43
0.0
 10
470.424592
 20
16.200106
 10
471.336681
 20
22.810228
 10
471.891656
 20
28.053645
 10
472.523093
 20
33.300767
 10
473.028018
 20
38.592996
 10
473.187181
 20
41.242859
 10
473.338856
 20
42.833125
 10
473.440194
 20
43.895616
 10
473.85329
 20
49.20647
 10
474.109785
 20
54.519332
 10
474.180219
 20
55.582174
 10
474.238449
 20
57.177654
 10
474.334895
 20
58.773264
 10
474.367528
 20
59.837963
 10
474.626962
 20
65.161188
 10
474.75826
 20
70.351838
 10
474.757356
 20
71.650059
 10
474.777206
 20
72.660355
 10
474.798662
 20
75.544411
 10
474.843561
 20
80.737894
 10
474.739517
 20
85.33591
 10
474.739559
 20
86.255761
 10
474.691831
 20
87.633359
 10
474.683581
 20
89.012334
 10
474.646252
 20
89.930348
 10
474.559034
 20
94.519402
 10
474.304046
 20
98.701107
 10
474.273416
 20
99.537446
 10
474.180125
 20
100.788686
 10
474.125675
 20
102.041446
 10
474.057876
 20
102.874589
 10
473.816502
 20
107.038399
 10
473.41581
 20
110.898497
 10
473.355546
 20
111.669602
 10
473.218429
 20
112.824128
 10
473.119443
 20
113.978832
 10
473.022382
 20
114.747332
 10
472.63256
 20
118.584766
 10
471.821433
 20
123.975706
 10
471.678822
 20
125.052183
 10
471.584178
 20
125.766583
 10
471.019441
 20
129.336962
 10
470.338072
 20
132.714288
 10
470.220083
 20
133.389771
 10
470.027657
 20
134.404471
 10
469.813801
 20
135.407125
 10
469.661104
 20
136.076631
 10
468.984872
 20
139.423178
 10
468.163115
 20
142.624242
 10
468.016086
 20
143.263872
 10
467.780044
 20
144.225258
 10
467.524232
 20
145.174699
 10
467.343536
 20
145.809034
 10
466.526494
 20
148.979039
 10
465.428349
 20
152.716417
 10
464.244164
 20
156.438089
 10
463.066198
 20
160.145245
 10
460.622265
 20
167.313669
 10
459.309327
 20
170.888787
 10
455.567509
 20
181.605323
 10
451.284421
 20
194.278403
 10
447.199145
 20
208.03937
 10
444.788993
 20
216.888334
 10
442.597785
 20
225.765423
 10
438.573228
 20
243.17221
 10
435.383249
 20
259.114015
 10
433.030645
 20
273.207879
 10
431.152561
 20
287.398691
  0
LWPOLYLINE
  5
4E
100
AcDbEntity
  8
L1
  6
BYBLOCK
100
AcDbPolyline
 90
       68
 70
     0
 43
0.0
 10
457.400251
 20
16.200106
 10
458.31234
 20
22.810228
 10
458.867315
 20
28.053645
 10
459.498752
 20
33.300767
 10
460.003677
 20
38.592996
 10
460.16284
 20
41.242859
 10
460.314515
 20
42.833125
 10
460.415853
 20
43.895616
 10
460.828949
 20
49.20647
 10
461.085444
 20
54.519332
 10
461.155878
 20
55.582174
 10
461.214108
 20
57.177654
 10
461.310554
 20
58.773264
 10
461.343187
 20
59.837963
 10
461.602621
 20
65.161188
 10
461.733919
 20
70.351838
 10
461.733015
 20
71.650059
 10
461.752865
 20
72.660355
 10
461.774321
 20
75.544411
 10
461.81922
 20
80.737894
 10
461.715176
 20
85.33591
 10
461.715218
 20
86.255761
 10
461.66749
 20
87.633359
 10
461.65924
 20
89.012334
 10
461.621911
 20
89.930348
 10
461.534693
 20
94.519402
 10
461.279705
 20
98.701107
 10
461.249075
 20
99.537446
 10
461.155784
 20
100.788686
 10
461.101334
 20
102.041446
 10
461.033535
 20
102.874589
 10
460.792161
 20
107.038399
 10
460.391469
 20
110.898497
 10
460.331205
 20
111.669602
 10
460.194088
 20
112.824128
 10
460.095102
 20
113.978832
 10
459.998041
 20
114.747332
 10
459.608219
 20
118.584766
 10
458.797092
 20
123.975706
 10
458.654481
 20
125.052183
 10
458.559837
 20
125.766583
 10
457.9951
 20
129.336962
 10
457.313731
 20
132.714288
 10
457.195742
 20
133.389771
 10
457.003316
 20
134.404471
 10
456.78946
 20
135.407125
 10
456.636763
 20
136.076631
 10
455.960531
 20
139.423178
 10
455.138774
 20
142.624242
 10
454.991745
 20
143.263872
 10
454.755703
 20
144.225258
 10
454.499891
 20
145.174699
 10
454.319195
 20
145.809034
 10
453.502153
 20
148.979039
 10
452.404008
 20
152.716417
 10
451.219823
 20
156.438089
 10
450.041857
 20
160.145245
 10
447.597924
 20
167.313669
 10
446.284986
 20
170.888787
 10
442.543168
 20
181.605323
 10
438.26008
 20
194.278403
 10
434.174804
 20
208.03937
 10
431.764652
 20
216.888334
 10
429.573444
 20
225.765423
 10
425.548887
 20
243.17221
 10
422.358908
 20
259.114015
 10
420.006304
 20
273.207879
 10
418.12822
 20
287.398691
  0
LWPOLYLINE
  5
4F
100
AcDbEntity
  8
L1
  6
BYBLOCK
100
AcDbPolyline
 90
       68
 70
     0
 43
0.0
 10
444.37591
 20
16.200106
 10
445.287999
 20
22.810228
 10
445.842974
 20
28.053645
 10
446.474411
 20
33.300767
 10
446.979336
 20
38.592996
 10
447.138499
 20
41.242859
 10
447.290174
 20
42.833125
 10
447.391512
 20
43.895616
 10
447.804608
 20
49.20647
 10
448.061103
 20
54.519332
 10
448.131537
 20
55.582174
 10
448.189767
 20
57.177654
 10
448.286213
 20
58.773264
 10
448.318846
 20
59.837963
 10
448.57828
 20
65.161188
 10
448.709578
 20
70.351838
 10
448.708674
 20
71.650059
 10
448.728524
 20
72.660355
 10
448.74998
 20
75.544411
 10
448.794879
 20
80.737894
 10
448.690835
 20
85.33591
 10
448.690877
 20
86.255761
 10
448.643149
 20
87.633359
 10
448.634899
 20
89.012334
 10
448.59757
 20
89.930348
 10
448.510352
 20
94.519402
 10
448.255364
 20
98.701107
 10
448.224734
 20
99.537446
 10
448.131443
 20
100.788686
 10
448.076993
 20
102.041446
 10
448.009194
 20
102.874589
 10
447.76782
 20
107.038399
 10
447.367128
 20
110.898497
 10
447.306864
 20
111.669602
 10
447.169747
 20
112.824128
 10
447.070761
 20
113.978832
 10
446.9737
 20
114.747332
 10
446.583878
 20
118.584766
 10
445.772751
 20
123.975706
 10
445.63014
 20
125.052183
 10
445.535496
 20
125.766583
 10
444.970759
 20
129.336962
 10
444.28939
 20
132.714288
 10
444.171401
 20
133.389771
 10
443.978975
 20
134.404471
 10
443.765119
 20
135.407125
 10
443.612422
 20
136.076631
 10
442.93619
 20
139.423178
 10
442.114433
 20
142.624242
 10
441.967404
 20
143.263872
 10
441.731362
 20
144.225258
 10
441.47555
 20
145.174699
 10
441.294854
 20
145.809034
 10
440.477812
 20
148.979039
 10
439.379667
 20
152.716417
 10
438.195482
 20
156.438089
 10
437.017516
 20
160.145245
 10
434.573583
 20
167.313669
 10
433.260645
 20
170.888787
 10
429.518827
 20
181.605323
 10
425.235739
 20
194.278403
 10
421.150463
 20
208.03937
 10
418.740311
 20
216.888334
 10
416.549103
 20
225.765423
 10
412.524546
 20
243.17221
 10
409.334567
 20
259.114015
 10
406.981963
 20
273.207879
 10
405.103879
 20
287.398691
  0
LWPOLYLINE
  5
50
100
AcDbEntity
  8
L1
  6
BYBLOCK
100
AcDbPolyline
 90
       68
 70
     0
 43
0.0
 10
431.351569
 20
16.200106
 10
432.263658
 20
22.810228
 10
432.818633
 20
28.053645
 10
433.45007
 20
33.300767
 10
433.954995
 20
38.592996
 10
434.114158
 20
41.242859
 10
434.265833
 20
42.833125
 10
434.367171
 20
43.895616
 10
434.780267
 20
49.20647
 10
435.036762
 20
54.519332
 10
435.107196
 20
55.582174
 10
435.165426
 20
57.177654
 10
435.261872
 20
58.773264
 10
435.294505
 20
59.837963
 10
435.553939
 20
65.161188
 10
435.685237
 20
70.351838
 10
435.684333
 20
71.650059
 10
435.704183
 20
72.660355
 10
435.725639
 20
75.544411
 10
435.770538
 20
80.737894
 10
435.666494
 20
85.33591
 10
435.666536
 20
86.255761
 10
435.618808
 20
87.633359
 10
435.610558
 20
89.012334
 10
435.573229
 20
89.930348
 10
435.486011
 20
94.519402
 10
435.231023
 20
98.701107
 10
435.200393
 20
99.537446
 10
435.107102
 20
100.788686
 10
435.052652
 20
102.041446
 10
434.984853
 20
102.874589
 10
434.743479
 20
107.038399
 10
434.342787
 20
110.898497
 10
434.282523
 20
111.669602
 10
434.145406
 20
112.824128
 10
434.04642
 20
113.978832
 10
433.949359
 20
114.747332
 10
433.559537
 20
118.584766
 10
432.74841
 20
123.975706
 10
432.605799
 20
125.052183
 10
432.511155
 20
125.766583
 10
431.946418
 20
129.336962
 10
431.265049
 20
132.714288
 10
431.14706
 20
133.389771
 10
430.954634
 20
134.404471
 10
430.740778
 20
135.407125
 10
430.588081
 20
136.076631
 10
429.911849
 20
139.423178
 10
429.090092
 20
142.624242
 10
428.943063
 20
143.263872
 10
428.707021
 20
144.225258
 10
428.451209
 20
145.174699
 10
428.270513
 20
145.809034
 10
427.453471
 20
148.979039
 10
426.355326
 20
152.716417
 10
425.171141
 20
156.438089
 10
423.993175
 20
160.145245
 10
421.549242
 20
167.313669
 10
420.236304
 20
170.888787
 10
416.494486
 20
181.605323
 10
412.211398
 20
194.278403
 10
408.126122
 20
208.03937
 10
405.71597
 20
216.888334
 10
403.524762
 20
225.765423
 10
399.500205
 20
243.17221
 10
396.310226
 20
259.114015
 10
393.957622
 20
273.207879
 10
392.079538
 20
287.398691
  0
LWPOLYLINE
  5
51
100
AcDbEntity
  8
L1
  6
BYBLOCK
100
AcDbPolyline
 90
       68
 70
     0
 43
0.0
 10
418.327228
 20
16.200106
 10
419.239317
 20
22.810228
 10
419.794292
 20
28.053645
 10
420.425729
 20
33.300767
 10
420.930654
 20
38.592996
 10
421.089817
 20
41.242859
 10
421.241492
 20
42.833125
 10
421.34283
 20
43.895616
 10
421.755926
 20
49.20647
 10
422.012421
 20
54.519332
 10
422.082855
 20
55.582174
 10
422.141085
 20
57.177654
 10
422.237531
 20
58.773264
 10
422.270164
 20
59.837963
 10
422.529598
 20
65.161188
 10
422.660896
 20
70.351838
 10
422.659992
 20
71.650059
 10
422.679842
 20
72.660355
 10
422.701298
 20
75.544411
 10
422.746197
 20
80.737894
 10
422.642153
 20
85.33591
 10
422.642195
 20
86.255761
 10
422.594467
 20
87.633359
 10
422.586217
 20
89.012334
 10
422.548888
 20
89.930348
 10
422.46167
 20
94.519402
 10
422.206682
 20
98.701107
 10
422.176052
 20
99.537446
 10
422.082761
 20
100.788686
 10
422.028311
 20
102.041446
 10
421.960512
 20
102.874589
 10
421.719138
 20
107.038399
 10
421.318446
 20
110.898497
 10
421.258182
 20
111.669602
 10
421.121065
 20
112.824128
 10
421.022079
 20
113.978832
 10
420.925018
 20
114.747332
 10
420.535196
 20
118.584766
 10
419.724069
 20
123.975706
 10
419.581458
 20
125.052183
 10
419.486814
 20
125.766583
 10
418.922077
 20
129.336962
 10
418.240708
 20
132.714288
 10
418.122719
 20
133.389771
 10
417.930293
 20
134.404471
 10
417.716437
 20
135.407125
 10
417.56374
 20
136.076631
 10
416.887508
 20
139.423178
 10
416.065751
 20
142.624242
 10
415.918722
 20
143.263872
 10
415.68268
 20
144.225258
 10
415.426868
 20
145.174699
 10
415.246172
 20
145.809034
 10
414.42913
 20
148.979039
 10
413.330985
 20
152.716417
 10
412.1468
 20
156.438089
 10
410.968834
 20
160.145245
 10
408.524901
 20
167.313669
 10
407.211963
 20
170.888787
 10
403.470145
 20
181.605323
 10
399.187057
 20
194.278403
 10
395.101781
 20
208.03937
 10
392.691629
 20
216.888334
 10
390.500421
 20
225.765423
 10
386.475864
 20
243.17221
 10
383.285885
 20
259.114015
 10
380.933281
 20
273.207879
 10
379.055197
 20
287.398691
  0
LWPOLYLINE
  5
52
100
AcDbEntity
  8
L1
  6
BYBLOCK
100
AcDbPolyline
 90
       68
 70
     0
 43
0.0
 10
405.302887
 20
16.200106
 10
406.214976
 20
22.810228
 10
406.769951
 20
28.053645
 10
407.401388
 20
33.300767
 10
407.906313
 20
38.592996
 10
408.065476
 20
41.242859
 10
408.217151
 20
42.833125
 10
408.318489
 20
43.895616
 10
408.731585
 20
49.20647
 10
408.98808
 20
54.519332
 10
409.058514
 20
55.582174
 10
409.116744
 20
57.177654
 10
409.21319
 20
58.773264
 10
409.245823
 20
59.837963
 10
409.505257
 20
65.161188
 10
409.636555
 20
70.351838
 10
409.635651
 20
71.650059
 10
409.655501
 20
72.660355
 10
409.676957
 20
75.544411
 10
409.721856
 20
80.737894
 10
409.617812
 20
85.33591
 10
409.617854
 20
86.255761
 10
409.570126
 20
87.633359
 10
409.561876
 20
89.012334
 10
409.524547
 20
89.930348
 10
409.437329
 20
94.519402
 10
409.182341
 20
98.701107
 10
409.151711
 20
99.537446
 10
409.05842
 20
100.788686
 10
409.00397
 20
102.041446
 10
408.936171
 20
102.874589
 10
408.694797
 20
107.038399
 10
408.294105
 20
110.898497
 10
408.233841
 20
111.669602
 10
408.096724
 20
112.824128
 10
407.997738
 20
113.978832
 10
407.900677
 20
114.747332
 10
407.510855
 20
118.584766
 10
406.699728
 20
123.975706
 10
406.557117
 20
125.052183
 10
406.462473
 20
125.766583
 10
405.897736
 20
129.336962
 10
405.216367
 20
132.714288
 10
405.098378
 20
133.389771
 10
404.905952
 20
134.404471
 10
404.692096
 20
135.407125
 10
404.539399
 20
136.076631
 10
403.863167
 20
139.423178
 10
403.04141
 20
142.624242
 10
402.894381
 20
143.263872
 10
402.658339
 20
144.225258
 10
402.402527
 20
145.174699
 10
402.221831
 20
145.809034
 10
401.404789
 20
148.979039
 10
400.306644
 20
152.716417
 10
399.122459
 20
156.438089
 10
397.944493
 20
160.145245
 10
395.50056
 20
167.313669
 10
394.187622
 20
170.888787
 10
390.445804
 20
181.605323
 10
386.162716
 20
194.278403
 10
382.07744
 20
208.03937
 10
379.667288
 20
216.888334
 10
377.47608
 20
225.765423
 10
373.451523
 20
243.17221
 10
370.261544
 20
259.114015
 10
367.90894
 20
273.207879
 10
366.030856
 20
287.398691
  0
LWPOLYLINE
  5
53
100
AcDbEntity
  8
L1
  6
BYBLOCK
100
AcDbPolyline
 90
       68
 70
     0
 43
0.0
 10
392.278546
 20
16.200106
 10
393.190634
 20
22.810228
 10
393.745609
 20
28.053645
 10
394.377046
 20
33.300767
 10
394.881971
 20
38.592996
 10
395.041134
 20
41.242859
 10
395.192809
 20
42.833125
 10
395.294147
 20
43.895616
 10
395.707243
 20
49.20647
 10
395.963738
 20
54.519332
 10
396.034172
 20
55.582174
 10
396.092402
 20
57.177654
 10
396.188848
 20
58.773264
 10
396.221481
 20
59.837963
 10
396.480915
 20
65.161188
 10
396.612213
 20
70.351838
 10
396.611309
 20
71.650059
 10
396.631159
 20
72.660355
 10
396.652615
 20
75.544411
 10
396.697514
 20
80.737894
 10
396.59347
 20
85.33591
 10
396.593512
 20
86.255761
 10
396.545784
 20
87.633359
 10
396.537534
 20
89.012334
 10
396.500205
 20
89.930348
 10
396.412987
 20
94.519402
 10
396.157999
 20
98.701107
 10
396.127369
 20
99.537446
 10
396.034078
 20
100.788686
 10
395.979628
 20
102.041446
 10
395.911829
 20
102.874589
 10
395.670455
 20
107.038399
 10
395.269763
 20
110.898497
 10
395.209499
 20
111.669602
 10
395.072382
 20
112.824128
 10
394.973396
 20
113.978832
 10
394.876335
 20
114.747332
 10
394.486513
 20
118.584766
 10
393.675386
 20
123.975706
 10
393.532775
 20
125.052183
 10
393.438131
 20
125.766583
 10
392.873394
 20
129.336962
 10
392.192025
 20
132.714288
 10
392.074036
 20
133.389771
 10
391.88161
 20
134.404471
 10
391.667754
 20
135.407125
 10
391.515057
 20
136.076631
 10
390.838825
 20
139.423178
 10
390.017068
 20
142.624242
 10
389.870039
 20
143.263872
 10
389.633997
 20
144.225258
 10
389.378185
 20
145.174699
 10
389.197489
 20
145.809034
 10
388.380447
 20
148.979039
 10
387.282302
 20
152.716417
 10
386.098117
 20
156.438089
 10
384.920151
 20
160.145245
 10
382.476218
 20
167.313669
 10
381.16328
 20
170.888787
 10
377.421462
 20
181.605323
 10
373.138374
 20
194.278403
 10
369.053098
 20
208.03937
 10
366.642946
 20
216.888334
 10
364.451738
 20
225.765423
 10
360.427181
 20
243.17221
 10
357.237202
 20
259.114015
 10
354.884598
 20
273.207879
 10
353.006514
 20
287.398691
  0
LWPOLYLINE
  5
54
100
AcDbEntity
  8
L1
  6
BYBLOCK
100
AcDbPolyline
 90
       68
 70
     0
 43
0.0
 10
379.254204
 20
16.200106
 10
380.166293
 20
22.810228
 10
380.721268
 20
28.053645
 10
381.352705
 20
33.300767
 10
381.85763
 20
38.592996
 10
382.016793
 20
41.242859
 10
382.168468
 20
42.833125
 10
382.269806
 20
43.895616
 10
382.682902
 20
49.20647
 10
382.939397
 20
54.519332
 10
383.009831
 20
55.582174
 10
383.068061
 20
57.177654
 10
383.164507
 20
58.773264
 10
383.19714
 20
59.837963
 10
383.456574
 20
65.161188
 10
383.587872
 20
70.351838
 10
383.586968
 20
71.650059
 10
383.606818
 20
72.660355
 10
383.628274
 20
75.544411
 10
383.673173
 20
80.737894
 10
383.569129
 20
85.33591
 10
383.569171
 20
86.255761
 10
383.521443
 20
87.633359
 10
383.513193
 20
89.012334
 10
383.475864
 20
89.930348
 10
383.388646
 20
94.519402
 10
383.133658
 20
98.701107
 10
383.103028
 20
99.537446
 10
383.009737
 20
100.788686
 10
382.955287
 20
102.041446
 10
382.887488
 20
102.874589
 10
382.646114
 20
107.038399
 10
382.245422
 20
110.898497
 10
382.185158
 20
111.669602
 10
382.048041
 20
112.824128
 10
381.949055
 20
113.978832
 10
381.851994
 20
114.747332
 10
381.462172
 20
118.584766
 10
380.651045
 20
123.975706
 10
380.508434
 20
125.052183
 10
380.41379
 20
125.766583
 10
379.849053
 20
129.336962
 10
379.167684
 20
132.714288
 10
379.049695
 20
133.389771
 10
378.857269
 20
134.404471
 10
378.643413
 20
135.407125
 10
378.490716
 20
136.076631
 10
377.814484
 20
139.423178
 10
376.992727
 20
142.624242
 10
376.845698
 20
143.263872
 10
376.609656
 20
144.225258
 10
376.353844
 20
145.174699
 10
376.173148
 20
145.809034
 10
375.356106
 20
148.979039
 10
374.257961
 20
152.716417
 10
373.073776
 20
156.438089
 10
371.89581
 20
160.145245
 10
369.451877
 20
167.313669
 10
368.138939
 20
170.888787
 10
364.397121
 20
181.605323
 10
360.114033
 20
194.278403
 10
356.028757
 20
208.03937
 10
353.618605
 20
216.888334
 10
351.427397
 20
225.765423
 10
347.40284
 20
243.17221
 10
344.212861
 20
259.114015
 10
341.860257
 20
273.207879
 10
339.982173
 20
287.398691
  0
LWPOLYLINE
  5
55
100
AcDbEntity
  8
L1
  6
BYBLOCK
100
AcDbPolyline
 90
       68
 70
     0
 43
0.0
 10
366.229863
 20
16.200106
 10
367.141952
 20
22.810228
 10
367.696927
 20
28.053645
 10
368.328364
 20
33.300767
 10
368.833289
 20
38.592996
 10
368.992452
 20
41.242859
 10
369.144127
 20
42.833125
 10
369.245465
 20
43.895616
 10
369.658561
 20
49.20647
 10
369.915056
 20
54.519332
 10
369.98549
 20
55.582174
 10
370.04372
 20
57.177654
 10
370.140166
 20
58.773264
 10
370.172799
 20
59.837963
 10
370.432233
 20
65.161188
 10
370.563531
 20
70.351838
 10
370.562627
 20
71.650059
 10
370.582477
 20
72.660355
 10
370.603933
 20
75.544411
 10
370.648832
 20
80.737894
 10
370.544788
 20
85.33591
 10
370.54483
 20
86.255761
 10
370.497102
 20
87.633359
 10
370.488852
 20
89.012334
 10
370.451523
 20
89.930348
 10
370.364305
 20
94.519402
 10
370.109317
 20
98.701107
 10
370.078687
 20
99.537446
 10
369.985396
 20
100.788686
 10
369.930946
 20
102.041446
 10
369.863147
 20
102.874589
 10
369.621773
 20
107.038399
 10
369.221081
 20
110.898497
 10
369.160817
 20
111.669602
 10
369.0237
 20
112.824128
 10
368.924714
 20
113.978832
 10
368.827653
 20
114.747332
 10
368.437831
 20
118.584766
 10
367.626704
 20
123.975706
 10
367.484093
 20
125.052183
 10
367.389449
 20
125.766583
 10
366.824712
 20
129.336962
 10
366.143343
 20
132.714288
 10
366.025354
 20
133.389771
 10
365.832928
 20
134.404471
 10
365.619072
 20
135.407125
 10
365.466375
 20
136.076631
 10
364.790143
 20
139.423178
 10
363.968386
 20
142.624242
 10
363.821357
 20
143.263872
 10
363.585315
 20
144.225258
 10
363.329503
 20
145.174699
 10
363.148807
 20
145.809034
 10
362.331765
 20
148.979039
 10
361.23362
 20
152.716417
 10
360.049435
 20
156.438089
 10
358.871469
 20
160.145245
 10
356.427536
 20
167.313669
 10
355.114598
 20
170.888787
 10
351.37278
 20
181.605323
 10
347.089692
 20
194.278403
 10
343.004416
 20
208.03937
 10
340.594264
 20
216.888334
 10
338.403056
 20
225.765423
 10
334.378499
 20
243.17221
 10
331.18852
 20
259.114015
 10
328.835916
 20
273.207879
 10
326.957832
 20
287.398691
  0
LWPOLYLINE
  5
56
100
AcDbEntity
  8
L1
  6
BYBLOCK
100
AcDbPolyline
 90
       68
 70
     0
 43
0.0
 10
353.205522
 20
16.200106
 10
354.117611
 20
22.810228
 10
354.672586
 20
28.053645
 10
355.304023
 20
33.300767
 10
355.808948
 20
38.592996
 10
355.968111
 20
41.242859
 10
356.119786
 20
42.833125
 10
356.221124
 20
43.895616
 10
356.63422
 20
49.20647
 10
356.890715
 20
54.519332
 10
356.961149
 20
55.582174
 10
357.019379
 20
57.177654
 10
357.115825
 20
58.773264
 10
357.148458
 20
59.837963
 10
357.407892
 20
65.161188
 10
357.53919
 20
70.351838
 10
357.538286
 20
71.650059
 10
357.558136
 20
72.660355
 10
357.579592
 20
75.544411
 10
357.624491
 20
80.737894
 10
357.520447
 20
85.33591
 10
357.520489
 20
86.255761
 10
357.472761
 20
87.633359
 10
357.464511
 20
89.012334
 10
357.427182
 20
89.930348
 10
357.339964
 20
94.519402
 10
357.084976
 20
98.701107
 10
357.054346
 20
99.537446
 10
356.961055
 20
100.788686
 10
356.906605
 20
102.041446
 10
356.838806
 20
102.874589
 10
356.597432
 20
107.038399
 10
356.19674
 20
110.898497
 10
356.136476
 20
111.669602
 10
355.999359
 20
112.824128
 10
355.900373
 20
113.978832
 10
355.803312
 20
114.747332
 10
355.41349
 20
118.584766
 10
354.602363
 20
123.975706
 10
354.459752
 20
125.052183
 10
354.365108
 20
125.766583
 10
353.800371
 20
129.336962
 10
353.119002
 20
132.714288
 10
353.001013
 20
133.389771
 10
352.808587
 20
134.404471
 10
352.594731
 20
135.407125
 10
352.442034
 20
136.076631
 10
351.765802
 20
139.423178
 10
350.944045
 20
142.624242
 10
350.797016
 20
143.263872
 10
350.560974
 20
144.225258
 10
350.305162
 20
145.174699
 10
350.124466
 20
145.809034
 10
349.307424
 20
148.979039
 10
348.209279
 20
152.716417
 10
347.025094
 20
156.438089
 10
345.847128
 20
160.145245
 10
343.403195
 20
167.313669
 10
342.090257
 20
170.888787
 10
338.348439
 20
181.605323
 10
334.065351
 20
194.278403
 10
329.980075
 20
208.03937
 10
327.569923
 20
216.888334
 10
325.378715
 20
225.765423
 10
321.354158
 20
243.17221
 10
318.164179
 20
259.114015
 10
315.811575
 20
273.207879
 10
313.933491
 20
287.398691
  0
LWPOLYLINE
  5
57
100
AcDbEntity
  8
L1
  6
BYBLOCK
100
AcDbPolyline
 90
       68
 70
     0
 43
0.0
 10
340.181181
 20
16.200106
 10
341.09327
 20
22.810228
 10
341.648245
 20
28.053645
 10
342.279682
 20
33.300767
 10
342.784607
 20
38.592996
 10
342.94377
 20
41.242859
 10
343.095445
 20
42.833125
 10
343.196783
 20
43.895616
 10
343.609879
 20
49.20647
 10
343.866374
 20
54.519332
 10
343.936808
 20
55.582174
 10
343.995038
 20
57.177654
 10
344.091484
 20
58.773264
 10
344.124117
 20
59.837963
 10
344.383551
 20
65.161188
 10
344.514849
 20
70.351838
 10
344.513945
 20
71.650059
 10
344.533795
 20
72.660355
 10
344.555251
 20
75.544411
 10
344.60015
 20
80.737894
 10
344.496106
 20
85.33591
 10
344.496148
 20
86.255761
 10
344.44842
 20
87.633359
 10
344.44017
 20
89.012334
 10
344.402841
 20
89.930348
 10
344.315623
 20
94.519402
 10
344.060635
 20
98.701107
 10
344.030005
 20
99.537446
 10
343.936714
 20
100.788686
 10
343.882264
 20
102.041446
 10
343.814465
 20
102.874589
 10
343.573091
 20
107.038399
 10
343.172399
 20
110.898497
 10
343.112135
 20
111.669602
 10
342.975018
 20
112.824128
 10
342.876032
 20
113.978832
 10
342.778971
 20
114.747332
 10
342.389149
 20
118.584766
 10
341.578022
 20
123.975706
 10
341.435411
 20
125.052183
 10
341.340767
 20
125.766583
 10
340.77603
 20
129.336962
 10
340.094661
 20
132.714288
 10
339.976672
 20
133.389771
 10
339.784246
 20
134.404471
 10
339.57039
 20
135.407125
 10
339.417693
 20
136.076631
 10
338.741461
 20
139.423178
 10
337.919704
 20
142.624242
 10
337.772675
 20
143.263872
 10
337.536633
 20
144.225258
 10
337.280821
 20
145.174699
 10
337.100125
 20
145.809034
 10
336.283083
 20
148.979039
 10
335.184938
 20
152.716417
 10
334.000753
 20
156.438089
 10
332.822787
 20
160.145245
 10
330.378854
 20
167.313669
 10
329.065916
 20
170.888787
 10
325.324098
 20
181.605323
 10
321.04101
 20
194.278403
 10
316.955734
 20
208.03937
 10
314.545582
 20
216.888334
 10
312.354374
 20
225.765423
 10
308.329817
 20
243.17221
 10
305.139838
 20
259.114015
 10
302.787234
 20
273.207879
 10
300.90915
 20
287.398691
  0
LWPOLYLINE
  5
58
100
AcDbEntity
  8
E1
  6
BYBLOCK
100
AcDbPolyline
 90
        4
 70
     1
 43
0.0
 10
346.627303
 20
220.139537
 10
339.754716
 20
220.289537
 10
340.529789
 20
217.149537
 10
346.627303
 20
217.149537
  0
LWPOLYLINE
  5
59
100
AcDbEntity
  8
E1
  6
BYBLOCK
100
AcDbPolyline
 90
        4
 70
     1
 43
0.0
 10
320.578621
 20
220.139537
 10
313.706034
 20
220.289537
 10
314.481107
 20
217.149537
 10
320.578621
 20
217.149537
  0
LWPOLYLINE
  5
5A
100
AcDbEntity
  8
E1
  6
BYBLOCK
100
AcDbPolyline
 90
        4
 70
     1
 43
0.0
 10
307.55428
 20
220.139537
 10
300.681693
 20
220.289537
 10
301.456766
 20
217.149537
 10
307.55428
 20
217.149537
  0
LWPOLYLINE
  5
5B
100
AcDbEntity
  8
E1
  6
BYBLOCK
100
AcDbPolyline
 90
        4
 70
     1
 43
0.0
 10
333.602962
 20
220.139537
 10
326.730375
 20
220.289537
 10
327.505448
 20
217.149537
 10
333.602962
 20
217.149537
  0
LWPOLYLINE
  5
5C
100
AcDbEntity
  8
E1
  6
BYBLOCK
100
AcDbPolyline
 90
        4
 70
     1
 43
0.0
 10
359.651644
 20
220.139537
 10
352.779057
 20
220.289537
 10
353.55413
 20
217.149537
 10
359.651644
 20
217.149537
  0
LWPOLYLINE
  5
5D
100
AcDbEntity
  8
E1
  6
BYBLOCK
100
AcDbPolyline
 90
        4
 70
     1
 43
0.0
 10
372.675985
 20
220.139537
 10
365.803398
 20
220.289537
 10
366.578471
 20
217.149537
 10
372.675985
 20
217.149537
  0
LWPOLYLINE
  5
5E
100
AcDbEntity
  8
E1
  6
BYBLOCK
100
AcDbPolyline
 90
        4
 70
     1
 43
0.0
 10
385.700326
 20
220.139537
 10
378.827739
 20
220.289537
 10
379.602813
 20
217.149537
 10
385.700326
 20
217.149537
  0
LWPOLYLINE
  5
5F
100
AcDbEntity
  8
E1
  6
BYBLOCK
100
AcDbPolyline
 90
        4
 70
     1
 43
0.0
 10
437.797691
 20
220.139537
 10
430.925104
 20
220.289537
 10
431.700177
 20
217.149537
 10
437.797691
 20
217.149537
  0
LWPOLYLINE
  5
60
100
AcDbEntity
  8
E1
  6
BYBLOCK
100
AcDbPolyline
 90
        4
 70
     1
 43
0.0
 10
411.749009
 20
220.139537
 10
404.876422
 20
220.289537
 10
405.651495
 20
217.149537
 10
411.749009
 20
217.149537
  0
LWPOLYLINE
  5
61
100
AcDbEntity
  8
E1
  6
BYBLOCK
100
AcDbPolyline
 90
        4
 70
     1
 43
0.0
 10
398.724668
 20
220.139537
 10
391.852081
 20
220.289537
 10
392.627154
 20
217.149537
 10
398.724668
 20
217.149537
  0
LWPOLYLINE
  5
62
100
AcDbEntity
  8
E1
  6
BYBLOCK
100
AcDbPolyline
 90
        4
 70
     1
 43
0.0
 10
424.77335
 20
220.139537
 10
417.900763
 20
220.289537
 10
418.675836
 20
217.149537
 10
424.77335
 20
217.149537
  0
LWPOLYLINE
  5
63
100
AcDbEntity
  8
E1
  6
BYBLOCK
100
AcDbPolyline
 90
        4
 70
     1
 43
0.0
 10
463.846373
 20
220.139537
 10
456.973786
 20
220.289537
 10
457.748859
 20
217.149537
 10
463.846373
 20
217.149537
  0
LWPOLYLINE
  5
64
100
AcDbEntity
  8
E1
  6
BYBLOCK
100
AcDbPolyline
 90
        4
 70
     1
 43
0.0
 10
450.822032
 20
220.139537
 10
443.949445
 20
220.289537
 10
444.724518
 20
217.149537
 10
450.822032
 20
217.149537
  0
LWPOLYLINE
  5
65
100
AcDbEntity
  8
E1
  6
BYBLOCK
100
AcDbPolyline
 90
        4
 70
     1
 43
0.0
 10
476.870714
 20
220.139537
 10
469.998127
 20
220.289537
 10
470.7732
 20
217.149537
 10
476.870714
 20
217.149537
  0
LWPOLYLINE
  5
66
100
AcDbEntity
  8
E1
  6
BYBLOCK
100
AcDbPolyline
 90
        4
 70
     1
 43
0.0
 10
528.968079
 20
220.139537
 10
522.095492
 20
220.289537
 10
522.870565
 20
217.149537
 10
528.968079
 20
217.149537
  0
LWPOLYLINE
  5
67
100
AcDbEntity
  8
E1
  6
BYBLOCK
100
AcDbPolyline
 90
        4
 70
     1
 43
0.0
 10
489.895055
 20
220.139537
 10
483.022468
 20
220.289537
 10
483.797542
 20
217.149537
 10
489.895055
 20
217.149537
  0
LWPOLYLINE
  5
68
100
AcDbEntity
  8
E1
  6
BYBLOCK
100
AcDbPolyline
 90
        4
 70
     1
 43
0.0
 10
502.919397
 20
220.139537
 10
496.04681
 20
220.289537
 10
496.821883
 20
217.149537
 10
502.919397
 20
217.149537
  0
LWPOLYLINE
  5
69
100
AcDbEntity
  8
E1
  6
BYBLOCK
100
AcDbPolyline
 90
        4
 70
     1
 43
0.0
 10
515.943738
 20
220.139537
 10
509.071151
 20
220.289537
 10
509.846224
 20
217.149537
 10
515.943738
 20
217.149537
  0
LWPOLYLINE
  5
6A
100
AcDbEntity
  8
E1
  6
BYBLOCK
100
AcDbPolyline
 90
        4
 70
     1
 43
0.0
 10
555.016761
 20
220.139537
 10
548.144174
 20
220.289537
 10
548.919247
 20
217.149537
 10
555.016761
 20
217.149537
  0
LWPOLYLINE
  5
6B
100
AcDbEntity
  8
E1
  6
BYBLOCK
100
AcDbPolyline
 90
        4
 70
     1
 43
0.0
 10
541.99242
 20
220.139537
 10
535.119833
 20
220.289537
 10
535.894906
 20
217.149537
 10
541.99242
 20
217.149537
  0
ENDSEC
  0
SECTION
  2
OBJECTS
  0
DICTIONARY
  5
1D
100
AcDbDictionary
  3
ACAD_GROUP
350
1B
  3
ACAD_MLINESTYLE
350
1C
  0
DICTIONARY
  5
B
100
AcDbDictionary
280
     1
  3
ACAD_LAYERSTATES
360
C
  3
ACLYDICTIONARY
360
D
  0
DICTIONARY
  5
1B
102
{ACAD_REACTORS
330
1D
102
}
100
AcDbDictionary
  0
DICTIONARY
  5
1C
102
{ACAD_REACTORS
330
1D
102
}
100
AcDbDictionary
  3
STANDARD
350
1E
  0
DICTIONARY
  5
C
102
{ACAD_REACTORS
330
B
102
}
100
AcDbDictionary
  0
DICTIONARY
  5
D
102
{ACAD_REACTORS
330
B
102
}
100
AcDbDictionary
1001
ACAD
1000
<All
  0
MLINESTYLE
  5
1E
102
{ACAD_REACTORS
330
1C
102
}
100
AcDbMlineStyle
  2
STANDARD
 70
     0
  3

 62
   256
 51
90.0
 52
90.0
 71
     2
 49
0.5
 62
   256
  6
BYLAYER
 49
-0.5
 62
   256
  6
BYLAYER
  0
ENDSEC
  0
EOF
